G75*
%MOIN*%
%OFA0B0*%
%FSLAX25Y25*%
%IPPOS*%
%LPD*%
%AMOC8*
5,1,8,0,0,1.08239X$1,22.5*
%
%ADD10C,0.00000*%
%ADD11C,0.01000*%
%ADD12C,0.02978*%
%ADD13C,0.03372*%
D10*
X0026500Y0001500D02*
X0177172Y0001500D01*
X0177728Y0001507D01*
X0178285Y0001527D01*
X0178840Y0001560D01*
X0179395Y0001608D01*
X0179948Y0001668D01*
X0180499Y0001742D01*
X0181049Y0001829D01*
X0181596Y0001929D01*
X0182141Y0002043D01*
X0182683Y0002169D01*
X0183222Y0002309D01*
X0183757Y0002462D01*
X0184288Y0002627D01*
X0184816Y0002805D01*
X0185338Y0002997D01*
X0185856Y0003200D01*
X0186369Y0003416D01*
X0186876Y0003645D01*
X0187378Y0003885D01*
X0187874Y0004138D01*
X0188364Y0004402D01*
X0188847Y0004679D01*
X0189323Y0004967D01*
X0189792Y0005266D01*
X0190254Y0005577D01*
X0190708Y0005898D01*
X0191154Y0006231D01*
X0191592Y0006574D01*
X0192022Y0006928D01*
X0192443Y0007292D01*
X0192855Y0007666D01*
X0193258Y0008049D01*
X0193652Y0008443D01*
X0194035Y0008846D01*
X0194409Y0009258D01*
X0194773Y0009679D01*
X0195127Y0010109D01*
X0195470Y0010547D01*
X0195803Y0010993D01*
X0196124Y0011447D01*
X0196435Y0011909D01*
X0196734Y0012378D01*
X0197022Y0012854D01*
X0197299Y0013337D01*
X0197563Y0013827D01*
X0197816Y0014323D01*
X0198056Y0014825D01*
X0198285Y0015332D01*
X0198501Y0015845D01*
X0198704Y0016363D01*
X0198896Y0016885D01*
X0199074Y0017413D01*
X0199239Y0017944D01*
X0199392Y0018479D01*
X0199532Y0019018D01*
X0199658Y0019560D01*
X0199772Y0020105D01*
X0199872Y0020652D01*
X0199959Y0021202D01*
X0200033Y0021753D01*
X0200093Y0022306D01*
X0200141Y0022861D01*
X0200174Y0023416D01*
X0200194Y0023973D01*
X0200201Y0024529D01*
X0200201Y0082276D01*
X0200192Y0082981D01*
X0200167Y0083686D01*
X0200124Y0084390D01*
X0200065Y0085093D01*
X0199988Y0085794D01*
X0199895Y0086493D01*
X0199784Y0087189D01*
X0199657Y0087883D01*
X0199513Y0088573D01*
X0199353Y0089260D01*
X0199176Y0089943D01*
X0198982Y0090621D01*
X0198773Y0091294D01*
X0198547Y0091962D01*
X0198305Y0092625D01*
X0198046Y0093281D01*
X0197773Y0093931D01*
X0197483Y0094574D01*
X0197178Y0095210D01*
X0196858Y0095838D01*
X0196523Y0096459D01*
X0196173Y0097071D01*
X0195808Y0097675D01*
X0195429Y0098269D01*
X0195035Y0098854D01*
X0194627Y0099430D01*
X0194206Y0099995D01*
X0193771Y0100551D01*
X0193323Y0101095D01*
X0192862Y0101629D01*
X0192388Y0102151D01*
X0191901Y0102661D01*
X0191402Y0103160D01*
X0190892Y0103647D01*
X0190370Y0104121D01*
X0189836Y0104582D01*
X0189292Y0105030D01*
X0188736Y0105465D01*
X0188171Y0105886D01*
X0187595Y0106294D01*
X0187010Y0106688D01*
X0186416Y0107067D01*
X0185812Y0107432D01*
X0185200Y0107782D01*
X0184579Y0108117D01*
X0183951Y0108437D01*
X0183315Y0108742D01*
X0182672Y0109032D01*
X0182022Y0109305D01*
X0181366Y0109564D01*
X0180703Y0109806D01*
X0180035Y0110032D01*
X0179362Y0110241D01*
X0178684Y0110435D01*
X0178001Y0110612D01*
X0177314Y0110772D01*
X0176624Y0110916D01*
X0175930Y0111043D01*
X0175234Y0111154D01*
X0174535Y0111247D01*
X0173834Y0111324D01*
X0173131Y0111383D01*
X0172427Y0111426D01*
X0171722Y0111451D01*
X0171017Y0111460D01*
X0171017Y0111461D02*
X0033692Y0111461D01*
X0032914Y0111452D01*
X0032137Y0111423D01*
X0031360Y0111376D01*
X0030585Y0111311D01*
X0029812Y0111226D01*
X0029041Y0111123D01*
X0028272Y0111001D01*
X0027507Y0110861D01*
X0026745Y0110703D01*
X0025988Y0110526D01*
X0025235Y0110330D01*
X0024487Y0110117D01*
X0023744Y0109885D01*
X0023007Y0109636D01*
X0022277Y0109369D01*
X0021553Y0109084D01*
X0020836Y0108782D01*
X0020126Y0108463D01*
X0019425Y0108127D01*
X0018732Y0107774D01*
X0018047Y0107404D01*
X0017372Y0107018D01*
X0016706Y0106615D01*
X0016050Y0106197D01*
X0015405Y0105762D01*
X0014770Y0105313D01*
X0014146Y0104848D01*
X0013534Y0104368D01*
X0012933Y0103874D01*
X0012345Y0103365D01*
X0011769Y0102842D01*
X0011206Y0102306D01*
X0010655Y0101755D01*
X0010119Y0101192D01*
X0009596Y0100616D01*
X0009087Y0100028D01*
X0008593Y0099427D01*
X0008113Y0098815D01*
X0007648Y0098191D01*
X0007199Y0097556D01*
X0006764Y0096911D01*
X0006346Y0096255D01*
X0005943Y0095589D01*
X0005557Y0094914D01*
X0005187Y0094229D01*
X0004834Y0093536D01*
X0004498Y0092835D01*
X0004179Y0092125D01*
X0003877Y0091408D01*
X0003592Y0090684D01*
X0003325Y0089954D01*
X0003076Y0089217D01*
X0002844Y0088474D01*
X0002631Y0087726D01*
X0002435Y0086973D01*
X0002258Y0086216D01*
X0002100Y0085454D01*
X0001960Y0084689D01*
X0001838Y0083920D01*
X0001735Y0083149D01*
X0001650Y0082376D01*
X0001585Y0081601D01*
X0001538Y0080824D01*
X0001509Y0080047D01*
X0001500Y0079269D01*
X0001500Y0026500D01*
X0001507Y0025896D01*
X0001529Y0025292D01*
X0001566Y0024689D01*
X0001617Y0024087D01*
X0001682Y0023487D01*
X0001762Y0022888D01*
X0001857Y0022291D01*
X0001966Y0021697D01*
X0002089Y0021105D01*
X0002226Y0020517D01*
X0002378Y0019932D01*
X0002544Y0019351D01*
X0002724Y0018775D01*
X0002917Y0018202D01*
X0003125Y0017635D01*
X0003346Y0017073D01*
X0003580Y0016516D01*
X0003828Y0015965D01*
X0004089Y0015420D01*
X0004364Y0014882D01*
X0004651Y0014350D01*
X0004951Y0013826D01*
X0005263Y0013309D01*
X0005588Y0012800D01*
X0005925Y0012298D01*
X0006275Y0011805D01*
X0006636Y0011321D01*
X0007008Y0010845D01*
X0007392Y0010379D01*
X0007787Y0009922D01*
X0008193Y0009475D01*
X0008610Y0009037D01*
X0009037Y0008610D01*
X0009475Y0008193D01*
X0009922Y0007787D01*
X0010379Y0007392D01*
X0010845Y0007008D01*
X0011321Y0006636D01*
X0011805Y0006275D01*
X0012298Y0005925D01*
X0012800Y0005588D01*
X0013309Y0005263D01*
X0013826Y0004951D01*
X0014350Y0004651D01*
X0014882Y0004364D01*
X0015420Y0004089D01*
X0015965Y0003828D01*
X0016516Y0003580D01*
X0017073Y0003346D01*
X0017635Y0003125D01*
X0018202Y0002917D01*
X0018775Y0002724D01*
X0019351Y0002544D01*
X0019932Y0002378D01*
X0020517Y0002226D01*
X0021105Y0002089D01*
X0021697Y0001966D01*
X0022291Y0001857D01*
X0022888Y0001762D01*
X0023487Y0001682D01*
X0024087Y0001617D01*
X0024689Y0001566D01*
X0025292Y0001529D01*
X0025896Y0001507D01*
X0026500Y0001500D01*
D11*
X0016836Y0008421D02*
X0013495Y0010653D01*
X0010653Y0013495D01*
X0008421Y0016836D01*
X0006883Y0020549D01*
X0006099Y0024491D01*
X0006000Y0026500D01*
X0006000Y0079269D01*
X0006133Y0081983D01*
X0007192Y0087307D01*
X0009270Y0092322D01*
X0012286Y0096836D01*
X0016124Y0100675D01*
X0020638Y0103691D01*
X0025654Y0105768D01*
X0030978Y0106827D01*
X0033692Y0106961D01*
X0171017Y0106961D01*
X0173436Y0106842D01*
X0178182Y0105898D01*
X0182653Y0104046D01*
X0186676Y0101358D01*
X0190098Y0097936D01*
X0192786Y0093912D01*
X0194638Y0089442D01*
X0195582Y0084696D01*
X0195701Y0082276D01*
X0195701Y0024529D01*
X0195584Y0022454D01*
X0194661Y0018409D01*
X0192861Y0014671D01*
X0190274Y0011427D01*
X0187030Y0008840D01*
X0183292Y0007040D01*
X0179247Y0006116D01*
X0177172Y0006000D01*
X0026500Y0006000D01*
X0024491Y0006099D01*
X0020549Y0006883D01*
X0016836Y0008421D01*
X0016733Y0008490D02*
X0186302Y0008490D01*
X0187843Y0009488D02*
X0015239Y0009488D01*
X0013744Y0010487D02*
X0189095Y0010487D01*
X0190320Y0011485D02*
X0012663Y0011485D01*
X0011665Y0012484D02*
X0191117Y0012484D01*
X0191913Y0013482D02*
X0010666Y0013482D01*
X0009995Y0014481D02*
X0192709Y0014481D01*
X0193250Y0015479D02*
X0009327Y0015479D01*
X0008660Y0016478D02*
X0193731Y0016478D01*
X0194212Y0017476D02*
X0008156Y0017476D01*
X0007742Y0018475D02*
X0194676Y0018475D01*
X0194904Y0019473D02*
X0007328Y0019473D01*
X0006915Y0020472D02*
X0195132Y0020472D01*
X0195360Y0021470D02*
X0006700Y0021470D01*
X0006501Y0022469D02*
X0195585Y0022469D01*
X0195641Y0023467D02*
X0006302Y0023467D01*
X0006104Y0024466D02*
X0195697Y0024466D01*
X0195701Y0025464D02*
X0006051Y0025464D01*
X0006002Y0026463D02*
X0195701Y0026463D01*
X0195701Y0027461D02*
X0006000Y0027461D01*
X0006000Y0028460D02*
X0195701Y0028460D01*
X0195701Y0029458D02*
X0006000Y0029458D01*
X0006000Y0030457D02*
X0195701Y0030457D01*
X0195701Y0031455D02*
X0006000Y0031455D01*
X0006000Y0032454D02*
X0195701Y0032454D01*
X0195701Y0033452D02*
X0006000Y0033452D01*
X0006000Y0034451D02*
X0195701Y0034451D01*
X0195701Y0035449D02*
X0006000Y0035449D01*
X0006000Y0036448D02*
X0195701Y0036448D01*
X0195701Y0037446D02*
X0006000Y0037446D01*
X0006000Y0038445D02*
X0195701Y0038445D01*
X0195701Y0039443D02*
X0006000Y0039443D01*
X0006000Y0040442D02*
X0195701Y0040442D01*
X0195701Y0041440D02*
X0143336Y0041440D01*
X0143265Y0041411D02*
X0144217Y0041805D01*
X0144945Y0042533D01*
X0145339Y0043485D01*
X0145339Y0044515D01*
X0144945Y0045467D01*
X0144217Y0046195D01*
X0143265Y0046589D01*
X0142424Y0046589D01*
X0139789Y0049224D01*
X0138852Y0050161D01*
X0137163Y0050161D01*
X0134197Y0053127D01*
X0133674Y0053650D01*
X0142087Y0053650D01*
X0150837Y0044900D01*
X0154663Y0044900D01*
X0155600Y0045837D01*
X0185977Y0076214D01*
X0187054Y0076214D01*
X0188078Y0076638D01*
X0188862Y0077422D01*
X0189286Y0078446D01*
X0189286Y0079554D01*
X0188862Y0080578D01*
X0188078Y0081362D01*
X0187054Y0081786D01*
X0185946Y0081786D01*
X0184922Y0081362D01*
X0184138Y0080578D01*
X0183714Y0079554D01*
X0183714Y0078477D01*
X0155339Y0050102D01*
X0155339Y0050765D01*
X0154945Y0051717D01*
X0154217Y0052445D01*
X0153695Y0052661D01*
X0154515Y0052661D01*
X0155467Y0053055D01*
X0156195Y0053783D01*
X0156589Y0054735D01*
X0156589Y0055765D01*
X0156195Y0056717D01*
X0155467Y0057445D01*
X0154515Y0057839D01*
X0153674Y0057839D01*
X0153100Y0058413D01*
X0153100Y0060926D01*
X0153502Y0061328D01*
X0154439Y0062265D01*
X0154439Y0065735D01*
X0153100Y0067074D01*
X0153100Y0067163D01*
X0152163Y0068100D01*
X0152074Y0068100D01*
X0151985Y0068189D01*
X0148515Y0068189D01*
X0148426Y0068100D01*
X0146767Y0068100D01*
X0141985Y0072881D01*
X0138515Y0072881D01*
X0136998Y0071365D01*
X0136061Y0070428D01*
X0136061Y0069350D01*
X0134574Y0069350D01*
X0124574Y0079350D01*
X0113561Y0079350D01*
X0112967Y0079945D01*
X0112015Y0080339D01*
X0110985Y0080339D01*
X0110033Y0079945D01*
X0109305Y0079217D01*
X0109000Y0078480D01*
X0108695Y0079217D01*
X0107967Y0079945D01*
X0107015Y0080339D01*
X0105985Y0080339D01*
X0105033Y0079945D01*
X0104305Y0079217D01*
X0103911Y0078265D01*
X0103911Y0077235D01*
X0104305Y0076283D01*
X0105033Y0075555D01*
X0105985Y0075161D01*
X0106826Y0075161D01*
X0108426Y0073561D01*
X0113235Y0073561D01*
X0114172Y0074498D01*
X0114172Y0074498D01*
X0114224Y0074550D01*
X0122586Y0074550D01*
X0127311Y0069825D01*
X0127311Y0059764D01*
X0124614Y0057067D01*
X0124614Y0053433D01*
X0125551Y0052496D01*
X0126246Y0051801D01*
X0127183Y0050864D01*
X0131934Y0050864D01*
X0135837Y0046961D01*
X0137526Y0046961D01*
X0140161Y0044326D01*
X0140161Y0043485D01*
X0140555Y0042533D01*
X0141283Y0041805D01*
X0142235Y0041411D01*
X0143265Y0041411D01*
X0142164Y0041440D02*
X0006000Y0041440D01*
X0006000Y0042439D02*
X0140650Y0042439D01*
X0140181Y0043437D02*
X0006000Y0043437D01*
X0006000Y0044436D02*
X0140051Y0044436D01*
X0139053Y0045434D02*
X0006000Y0045434D01*
X0006000Y0046433D02*
X0138054Y0046433D01*
X0138189Y0048561D02*
X0136500Y0048561D01*
X0132597Y0052464D01*
X0127846Y0052464D01*
X0126214Y0054096D01*
X0126214Y0056404D01*
X0128911Y0059101D01*
X0128911Y0070488D01*
X0123249Y0076150D01*
X0113561Y0076150D01*
X0112572Y0075161D01*
X0109089Y0075161D01*
X0106500Y0077750D01*
X0103911Y0077387D02*
X0099089Y0077387D01*
X0099089Y0077235D02*
X0099089Y0078265D01*
X0098695Y0079217D01*
X0097967Y0079945D01*
X0097015Y0080339D01*
X0095985Y0080339D01*
X0095033Y0079945D01*
X0094439Y0079350D01*
X0018561Y0079350D01*
X0017967Y0079945D01*
X0017015Y0080339D01*
X0015985Y0080339D01*
X0015033Y0079945D01*
X0014305Y0079217D01*
X0013911Y0078265D01*
X0013911Y0077235D01*
X0014305Y0076283D01*
X0015033Y0075555D01*
X0015985Y0075161D01*
X0017015Y0075161D01*
X0017967Y0075555D01*
X0018561Y0076150D01*
X0094439Y0076150D01*
X0095033Y0075555D01*
X0095985Y0075161D01*
X0097015Y0075161D01*
X0097967Y0075555D01*
X0098695Y0076283D01*
X0099089Y0077235D01*
X0098738Y0076388D02*
X0104262Y0076388D01*
X0105433Y0075390D02*
X0097567Y0075390D01*
X0095433Y0075390D02*
X0017567Y0075390D01*
X0015433Y0075390D02*
X0006000Y0075390D01*
X0006000Y0076388D02*
X0014262Y0076388D01*
X0013911Y0077387D02*
X0006000Y0077387D01*
X0006000Y0078385D02*
X0013961Y0078385D01*
X0014473Y0079384D02*
X0006006Y0079384D01*
X0006055Y0080382D02*
X0184057Y0080382D01*
X0183714Y0079384D02*
X0113527Y0079384D01*
X0111500Y0077750D02*
X0123911Y0077750D01*
X0133911Y0067750D01*
X0137661Y0067750D01*
X0137661Y0069765D01*
X0139178Y0071281D01*
X0141322Y0071281D01*
X0146104Y0066500D01*
X0149089Y0066500D01*
X0149178Y0066589D01*
X0151322Y0066589D01*
X0151411Y0066500D01*
X0151500Y0066500D01*
X0151500Y0066411D01*
X0152839Y0065072D01*
X0152839Y0062928D01*
X0151500Y0061589D01*
X0151500Y0057750D01*
X0154000Y0055250D01*
X0155834Y0053423D02*
X0158660Y0053423D01*
X0159658Y0054421D02*
X0156459Y0054421D01*
X0156589Y0055420D02*
X0160657Y0055420D01*
X0161655Y0056418D02*
X0156318Y0056418D01*
X0155495Y0057417D02*
X0162654Y0057417D01*
X0163652Y0058415D02*
X0153100Y0058415D01*
X0153100Y0059414D02*
X0164651Y0059414D01*
X0165649Y0060412D02*
X0153100Y0060412D01*
X0153585Y0061411D02*
X0166648Y0061411D01*
X0167646Y0062409D02*
X0154439Y0062409D01*
X0154439Y0063408D02*
X0168645Y0063408D01*
X0169643Y0064406D02*
X0154439Y0064406D01*
X0154439Y0065405D02*
X0170642Y0065405D01*
X0171641Y0066403D02*
X0153771Y0066403D01*
X0152861Y0067402D02*
X0172639Y0067402D01*
X0173638Y0068400D02*
X0146466Y0068400D01*
X0145468Y0069399D02*
X0174636Y0069399D01*
X0175635Y0070397D02*
X0144469Y0070397D01*
X0143471Y0071396D02*
X0176633Y0071396D01*
X0177632Y0072394D02*
X0142472Y0072394D01*
X0138028Y0072394D02*
X0131530Y0072394D01*
X0132528Y0071396D02*
X0137029Y0071396D01*
X0136061Y0070397D02*
X0133527Y0070397D01*
X0134525Y0069399D02*
X0136061Y0069399D01*
X0140250Y0068693D02*
X0144943Y0064000D01*
X0150250Y0064000D01*
X0149900Y0061411D02*
X0136589Y0061411D01*
X0131500Y0066500D01*
X0127311Y0066403D02*
X0006000Y0066403D01*
X0006000Y0065405D02*
X0127311Y0065405D01*
X0127311Y0064406D02*
X0006000Y0064406D01*
X0006000Y0063408D02*
X0127311Y0063408D01*
X0127311Y0062409D02*
X0006000Y0062409D01*
X0006000Y0061411D02*
X0127311Y0061411D01*
X0127311Y0060412D02*
X0006000Y0060412D01*
X0006000Y0059414D02*
X0126961Y0059414D01*
X0125963Y0058415D02*
X0006000Y0058415D01*
X0006000Y0057417D02*
X0124964Y0057417D01*
X0124614Y0056418D02*
X0006000Y0056418D01*
X0006000Y0055420D02*
X0124614Y0055420D01*
X0124614Y0054421D02*
X0006000Y0054421D01*
X0006000Y0053423D02*
X0124625Y0053423D01*
X0125623Y0052424D02*
X0006000Y0052424D01*
X0006000Y0051426D02*
X0126622Y0051426D01*
X0126246Y0051801D02*
X0126246Y0051801D01*
X0129000Y0055250D02*
X0142750Y0055250D01*
X0151500Y0046500D01*
X0154000Y0046500D01*
X0186500Y0079000D01*
X0189286Y0079384D02*
X0195701Y0079384D01*
X0195701Y0080382D02*
X0188943Y0080382D01*
X0188032Y0081381D02*
X0195701Y0081381D01*
X0195696Y0082379D02*
X0006212Y0082379D01*
X0006104Y0081381D02*
X0184968Y0081381D01*
X0183623Y0078385D02*
X0125539Y0078385D01*
X0126537Y0077387D02*
X0182624Y0077387D01*
X0181626Y0076388D02*
X0127536Y0076388D01*
X0128534Y0075390D02*
X0180627Y0075390D01*
X0179629Y0074391D02*
X0129533Y0074391D01*
X0130531Y0073393D02*
X0178630Y0073393D01*
X0181159Y0071396D02*
X0195701Y0071396D01*
X0195701Y0072394D02*
X0182157Y0072394D01*
X0183156Y0073393D02*
X0195701Y0073393D01*
X0195701Y0074391D02*
X0184154Y0074391D01*
X0185153Y0075390D02*
X0195701Y0075390D01*
X0195701Y0076388D02*
X0187475Y0076388D01*
X0188827Y0077387D02*
X0195701Y0077387D01*
X0195701Y0078385D02*
X0189261Y0078385D01*
X0195647Y0083378D02*
X0006411Y0083378D01*
X0006609Y0084376D02*
X0195598Y0084376D01*
X0195447Y0085375D02*
X0006808Y0085375D01*
X0007007Y0086373D02*
X0195248Y0086373D01*
X0195050Y0087372D02*
X0007219Y0087372D01*
X0007633Y0088370D02*
X0194851Y0088370D01*
X0194652Y0089369D02*
X0008046Y0089369D01*
X0008460Y0090368D02*
X0194254Y0090368D01*
X0193841Y0091366D02*
X0008874Y0091366D01*
X0009298Y0092365D02*
X0193427Y0092365D01*
X0193014Y0093363D02*
X0009965Y0093363D01*
X0010632Y0094362D02*
X0192486Y0094362D01*
X0191819Y0095360D02*
X0011299Y0095360D01*
X0011967Y0096359D02*
X0191152Y0096359D01*
X0190484Y0097357D02*
X0012807Y0097357D01*
X0013805Y0098356D02*
X0189678Y0098356D01*
X0188679Y0099354D02*
X0014804Y0099354D01*
X0015802Y0100353D02*
X0187681Y0100353D01*
X0186682Y0101351D02*
X0017137Y0101351D01*
X0018631Y0102350D02*
X0185191Y0102350D01*
X0183697Y0103348D02*
X0020125Y0103348D01*
X0022222Y0104347D02*
X0181927Y0104347D01*
X0179516Y0105345D02*
X0024632Y0105345D01*
X0028547Y0106344D02*
X0175940Y0106344D01*
X0122745Y0074391D02*
X0114065Y0074391D01*
X0107596Y0074391D02*
X0006000Y0074391D01*
X0006000Y0073393D02*
X0123743Y0073393D01*
X0124742Y0072394D02*
X0006000Y0072394D01*
X0006000Y0071396D02*
X0125740Y0071396D01*
X0126739Y0070397D02*
X0006000Y0070397D01*
X0006000Y0069399D02*
X0127311Y0069399D01*
X0127311Y0068400D02*
X0006000Y0068400D01*
X0006000Y0067402D02*
X0127311Y0067402D01*
X0109473Y0079384D02*
X0108527Y0079384D01*
X0104473Y0079384D02*
X0098527Y0079384D01*
X0099039Y0078385D02*
X0103961Y0078385D01*
X0096500Y0077750D02*
X0016500Y0077750D01*
X0018527Y0079384D02*
X0094473Y0079384D01*
X0133901Y0053423D02*
X0142315Y0053423D01*
X0143313Y0052424D02*
X0134900Y0052424D01*
X0135898Y0051426D02*
X0144312Y0051426D01*
X0145310Y0050427D02*
X0136897Y0050427D01*
X0133370Y0049429D02*
X0006000Y0049429D01*
X0006000Y0050427D02*
X0132371Y0050427D01*
X0134368Y0048430D02*
X0006000Y0048430D01*
X0006000Y0047432D02*
X0135367Y0047432D01*
X0138189Y0048561D02*
X0142750Y0044000D01*
X0144850Y0042439D02*
X0195701Y0042439D01*
X0195701Y0043437D02*
X0145319Y0043437D01*
X0145339Y0044436D02*
X0195701Y0044436D01*
X0195701Y0045434D02*
X0155197Y0045434D01*
X0156196Y0046433D02*
X0195701Y0046433D01*
X0195701Y0047432D02*
X0157194Y0047432D01*
X0158193Y0048430D02*
X0195701Y0048430D01*
X0195701Y0049429D02*
X0159191Y0049429D01*
X0160190Y0050427D02*
X0195701Y0050427D01*
X0195701Y0051426D02*
X0161188Y0051426D01*
X0162187Y0052424D02*
X0195701Y0052424D01*
X0195701Y0053423D02*
X0163185Y0053423D01*
X0164184Y0054421D02*
X0195701Y0054421D01*
X0195701Y0055420D02*
X0165182Y0055420D01*
X0166181Y0056418D02*
X0195701Y0056418D01*
X0195701Y0057417D02*
X0167179Y0057417D01*
X0168178Y0058415D02*
X0195701Y0058415D01*
X0195701Y0059414D02*
X0169176Y0059414D01*
X0170175Y0060412D02*
X0195701Y0060412D01*
X0195701Y0061411D02*
X0171173Y0061411D01*
X0172172Y0062409D02*
X0195701Y0062409D01*
X0195701Y0063408D02*
X0173170Y0063408D01*
X0174169Y0064406D02*
X0195701Y0064406D01*
X0195701Y0065405D02*
X0175167Y0065405D01*
X0176166Y0066403D02*
X0195701Y0066403D01*
X0195701Y0067402D02*
X0177164Y0067402D01*
X0178163Y0068400D02*
X0195701Y0068400D01*
X0195701Y0069399D02*
X0179162Y0069399D01*
X0180160Y0070397D02*
X0195701Y0070397D01*
X0157661Y0052424D02*
X0154237Y0052424D01*
X0155065Y0051426D02*
X0156663Y0051426D01*
X0155664Y0050427D02*
X0155339Y0050427D01*
X0152750Y0050250D02*
X0149900Y0053100D01*
X0149900Y0061411D01*
X0146309Y0049429D02*
X0139584Y0049429D01*
X0140583Y0048430D02*
X0147307Y0048430D01*
X0148306Y0047432D02*
X0141581Y0047432D01*
X0143641Y0046433D02*
X0149304Y0046433D01*
X0150303Y0045434D02*
X0144958Y0045434D01*
X0184229Y0007491D02*
X0019080Y0007491D01*
X0022511Y0006493D02*
X0180894Y0006493D01*
D12*
X0151500Y0041500D03*
X0142750Y0044000D03*
X0152750Y0050250D03*
X0154000Y0055250D03*
X0150250Y0064000D03*
X0140250Y0068693D03*
X0131500Y0066500D03*
X0111500Y0077750D03*
X0106500Y0077750D03*
X0096500Y0077750D03*
X0016500Y0077750D03*
D13*
X0085250Y0041500D03*
X0129000Y0055250D03*
X0152750Y0074000D03*
X0186500Y0079000D03*
X0187750Y0035250D03*
M02*
