G75*
%MOIN*%
%OFA0B0*%
%FSLAX25Y25*%
%IPPOS*%
%LPD*%
%AMOC8*
5,1,8,0,0,1.08239X$1,22.5*
%
%ADD10C,0.00000*%
D10*
X0026500Y0001500D02*
X0177172Y0001500D01*
X0177728Y0001507D01*
X0178285Y0001527D01*
X0178840Y0001560D01*
X0179395Y0001608D01*
X0179948Y0001668D01*
X0180499Y0001742D01*
X0181049Y0001829D01*
X0181596Y0001929D01*
X0182141Y0002043D01*
X0182683Y0002169D01*
X0183222Y0002309D01*
X0183757Y0002462D01*
X0184288Y0002627D01*
X0184816Y0002805D01*
X0185338Y0002997D01*
X0185856Y0003200D01*
X0186369Y0003416D01*
X0186876Y0003645D01*
X0187378Y0003885D01*
X0187874Y0004138D01*
X0188364Y0004402D01*
X0188847Y0004679D01*
X0189323Y0004967D01*
X0189792Y0005266D01*
X0190254Y0005577D01*
X0190708Y0005898D01*
X0191154Y0006231D01*
X0191592Y0006574D01*
X0192022Y0006928D01*
X0192443Y0007292D01*
X0192855Y0007666D01*
X0193258Y0008049D01*
X0193652Y0008443D01*
X0194035Y0008846D01*
X0194409Y0009258D01*
X0194773Y0009679D01*
X0195127Y0010109D01*
X0195470Y0010547D01*
X0195803Y0010993D01*
X0196124Y0011447D01*
X0196435Y0011909D01*
X0196734Y0012378D01*
X0197022Y0012854D01*
X0197299Y0013337D01*
X0197563Y0013827D01*
X0197816Y0014323D01*
X0198056Y0014825D01*
X0198285Y0015332D01*
X0198501Y0015845D01*
X0198704Y0016363D01*
X0198896Y0016885D01*
X0199074Y0017413D01*
X0199239Y0017944D01*
X0199392Y0018479D01*
X0199532Y0019018D01*
X0199658Y0019560D01*
X0199772Y0020105D01*
X0199872Y0020652D01*
X0199959Y0021202D01*
X0200033Y0021753D01*
X0200093Y0022306D01*
X0200141Y0022861D01*
X0200174Y0023416D01*
X0200194Y0023973D01*
X0200201Y0024529D01*
X0200201Y0082276D01*
X0200192Y0082981D01*
X0200167Y0083686D01*
X0200124Y0084390D01*
X0200065Y0085093D01*
X0199988Y0085794D01*
X0199895Y0086493D01*
X0199784Y0087189D01*
X0199657Y0087883D01*
X0199513Y0088573D01*
X0199353Y0089260D01*
X0199176Y0089943D01*
X0198982Y0090621D01*
X0198773Y0091294D01*
X0198547Y0091962D01*
X0198305Y0092625D01*
X0198046Y0093281D01*
X0197773Y0093931D01*
X0197483Y0094574D01*
X0197178Y0095210D01*
X0196858Y0095838D01*
X0196523Y0096459D01*
X0196173Y0097071D01*
X0195808Y0097675D01*
X0195429Y0098269D01*
X0195035Y0098854D01*
X0194627Y0099430D01*
X0194206Y0099995D01*
X0193771Y0100551D01*
X0193323Y0101095D01*
X0192862Y0101629D01*
X0192388Y0102151D01*
X0191901Y0102661D01*
X0191402Y0103160D01*
X0190892Y0103647D01*
X0190370Y0104121D01*
X0189836Y0104582D01*
X0189292Y0105030D01*
X0188736Y0105465D01*
X0188171Y0105886D01*
X0187595Y0106294D01*
X0187010Y0106688D01*
X0186416Y0107067D01*
X0185812Y0107432D01*
X0185200Y0107782D01*
X0184579Y0108117D01*
X0183951Y0108437D01*
X0183315Y0108742D01*
X0182672Y0109032D01*
X0182022Y0109305D01*
X0181366Y0109564D01*
X0180703Y0109806D01*
X0180035Y0110032D01*
X0179362Y0110241D01*
X0178684Y0110435D01*
X0178001Y0110612D01*
X0177314Y0110772D01*
X0176624Y0110916D01*
X0175930Y0111043D01*
X0175234Y0111154D01*
X0174535Y0111247D01*
X0173834Y0111324D01*
X0173131Y0111383D01*
X0172427Y0111426D01*
X0171722Y0111451D01*
X0171017Y0111460D01*
X0171017Y0111461D02*
X0033692Y0111461D01*
X0032914Y0111452D01*
X0032137Y0111423D01*
X0031360Y0111376D01*
X0030585Y0111311D01*
X0029812Y0111226D01*
X0029041Y0111123D01*
X0028272Y0111001D01*
X0027507Y0110861D01*
X0026745Y0110703D01*
X0025988Y0110526D01*
X0025235Y0110330D01*
X0024487Y0110117D01*
X0023744Y0109885D01*
X0023007Y0109636D01*
X0022277Y0109369D01*
X0021553Y0109084D01*
X0020836Y0108782D01*
X0020126Y0108463D01*
X0019425Y0108127D01*
X0018732Y0107774D01*
X0018047Y0107404D01*
X0017372Y0107018D01*
X0016706Y0106615D01*
X0016050Y0106197D01*
X0015405Y0105762D01*
X0014770Y0105313D01*
X0014146Y0104848D01*
X0013534Y0104368D01*
X0012933Y0103874D01*
X0012345Y0103365D01*
X0011769Y0102842D01*
X0011206Y0102306D01*
X0010655Y0101755D01*
X0010119Y0101192D01*
X0009596Y0100616D01*
X0009087Y0100028D01*
X0008593Y0099427D01*
X0008113Y0098815D01*
X0007648Y0098191D01*
X0007199Y0097556D01*
X0006764Y0096911D01*
X0006346Y0096255D01*
X0005943Y0095589D01*
X0005557Y0094914D01*
X0005187Y0094229D01*
X0004834Y0093536D01*
X0004498Y0092835D01*
X0004179Y0092125D01*
X0003877Y0091408D01*
X0003592Y0090684D01*
X0003325Y0089954D01*
X0003076Y0089217D01*
X0002844Y0088474D01*
X0002631Y0087726D01*
X0002435Y0086973D01*
X0002258Y0086216D01*
X0002100Y0085454D01*
X0001960Y0084689D01*
X0001838Y0083920D01*
X0001735Y0083149D01*
X0001650Y0082376D01*
X0001585Y0081601D01*
X0001538Y0080824D01*
X0001509Y0080047D01*
X0001500Y0079269D01*
X0001500Y0026500D01*
X0001507Y0025896D01*
X0001529Y0025292D01*
X0001566Y0024689D01*
X0001617Y0024087D01*
X0001682Y0023487D01*
X0001762Y0022888D01*
X0001857Y0022291D01*
X0001966Y0021697D01*
X0002089Y0021105D01*
X0002226Y0020517D01*
X0002378Y0019932D01*
X0002544Y0019351D01*
X0002724Y0018775D01*
X0002917Y0018202D01*
X0003125Y0017635D01*
X0003346Y0017073D01*
X0003580Y0016516D01*
X0003828Y0015965D01*
X0004089Y0015420D01*
X0004364Y0014882D01*
X0004651Y0014350D01*
X0004951Y0013826D01*
X0005263Y0013309D01*
X0005588Y0012800D01*
X0005925Y0012298D01*
X0006275Y0011805D01*
X0006636Y0011321D01*
X0007008Y0010845D01*
X0007392Y0010379D01*
X0007787Y0009922D01*
X0008193Y0009475D01*
X0008610Y0009037D01*
X0009037Y0008610D01*
X0009475Y0008193D01*
X0009922Y0007787D01*
X0010379Y0007392D01*
X0010845Y0007008D01*
X0011321Y0006636D01*
X0011805Y0006275D01*
X0012298Y0005925D01*
X0012800Y0005588D01*
X0013309Y0005263D01*
X0013826Y0004951D01*
X0014350Y0004651D01*
X0014882Y0004364D01*
X0015420Y0004089D01*
X0015965Y0003828D01*
X0016516Y0003580D01*
X0017073Y0003346D01*
X0017635Y0003125D01*
X0018202Y0002917D01*
X0018775Y0002724D01*
X0019351Y0002544D01*
X0019932Y0002378D01*
X0020517Y0002226D01*
X0021105Y0002089D01*
X0021697Y0001966D01*
X0022291Y0001857D01*
X0022888Y0001762D01*
X0023487Y0001682D01*
X0024087Y0001617D01*
X0024689Y0001566D01*
X0025292Y0001529D01*
X0025896Y0001507D01*
X0026500Y0001500D01*
M02*
