G75*
%MOIN*%
%OFA0B0*%
%FSLAX25Y25*%
%IPPOS*%
%LPD*%
%AMOC8*
5,1,8,0,0,1.08239X$1,22.5*
%
%ADD10C,0.00000*%
%ADD11C,0.00300*%
%ADD12C,0.00400*%
%ADD13C,0.00600*%
%ADD14C,0.00500*%
%ADD15C,0.01969*%
%ADD16R,0.02791X0.02732*%
%ADD17R,0.00984X0.00984*%
%ADD18C,0.00787*%
D10*
X0026500Y0001500D02*
X0177172Y0001500D01*
X0177728Y0001507D01*
X0178285Y0001527D01*
X0178840Y0001560D01*
X0179395Y0001608D01*
X0179948Y0001668D01*
X0180499Y0001742D01*
X0181049Y0001829D01*
X0181596Y0001929D01*
X0182141Y0002043D01*
X0182683Y0002169D01*
X0183222Y0002309D01*
X0183757Y0002462D01*
X0184288Y0002627D01*
X0184816Y0002805D01*
X0185338Y0002997D01*
X0185856Y0003200D01*
X0186369Y0003416D01*
X0186876Y0003645D01*
X0187378Y0003885D01*
X0187874Y0004138D01*
X0188364Y0004402D01*
X0188847Y0004679D01*
X0189323Y0004967D01*
X0189792Y0005266D01*
X0190254Y0005577D01*
X0190708Y0005898D01*
X0191154Y0006231D01*
X0191592Y0006574D01*
X0192022Y0006928D01*
X0192443Y0007292D01*
X0192855Y0007666D01*
X0193258Y0008049D01*
X0193652Y0008443D01*
X0194035Y0008846D01*
X0194409Y0009258D01*
X0194773Y0009679D01*
X0195127Y0010109D01*
X0195470Y0010547D01*
X0195803Y0010993D01*
X0196124Y0011447D01*
X0196435Y0011909D01*
X0196734Y0012378D01*
X0197022Y0012854D01*
X0197299Y0013337D01*
X0197563Y0013827D01*
X0197816Y0014323D01*
X0198056Y0014825D01*
X0198285Y0015332D01*
X0198501Y0015845D01*
X0198704Y0016363D01*
X0198896Y0016885D01*
X0199074Y0017413D01*
X0199239Y0017944D01*
X0199392Y0018479D01*
X0199532Y0019018D01*
X0199658Y0019560D01*
X0199772Y0020105D01*
X0199872Y0020652D01*
X0199959Y0021202D01*
X0200033Y0021753D01*
X0200093Y0022306D01*
X0200141Y0022861D01*
X0200174Y0023416D01*
X0200194Y0023973D01*
X0200201Y0024529D01*
X0200201Y0082276D01*
X0200192Y0082981D01*
X0200167Y0083686D01*
X0200124Y0084390D01*
X0200065Y0085093D01*
X0199988Y0085794D01*
X0199895Y0086493D01*
X0199784Y0087189D01*
X0199657Y0087883D01*
X0199513Y0088573D01*
X0199353Y0089260D01*
X0199176Y0089943D01*
X0198982Y0090621D01*
X0198773Y0091294D01*
X0198547Y0091962D01*
X0198305Y0092625D01*
X0198046Y0093281D01*
X0197773Y0093931D01*
X0197483Y0094574D01*
X0197178Y0095210D01*
X0196858Y0095838D01*
X0196523Y0096459D01*
X0196173Y0097071D01*
X0195808Y0097675D01*
X0195429Y0098269D01*
X0195035Y0098854D01*
X0194627Y0099430D01*
X0194206Y0099995D01*
X0193771Y0100551D01*
X0193323Y0101095D01*
X0192862Y0101629D01*
X0192388Y0102151D01*
X0191901Y0102661D01*
X0191402Y0103160D01*
X0190892Y0103647D01*
X0190370Y0104121D01*
X0189836Y0104582D01*
X0189292Y0105030D01*
X0188736Y0105465D01*
X0188171Y0105886D01*
X0187595Y0106294D01*
X0187010Y0106688D01*
X0186416Y0107067D01*
X0185812Y0107432D01*
X0185200Y0107782D01*
X0184579Y0108117D01*
X0183951Y0108437D01*
X0183315Y0108742D01*
X0182672Y0109032D01*
X0182022Y0109305D01*
X0181366Y0109564D01*
X0180703Y0109806D01*
X0180035Y0110032D01*
X0179362Y0110241D01*
X0178684Y0110435D01*
X0178001Y0110612D01*
X0177314Y0110772D01*
X0176624Y0110916D01*
X0175930Y0111043D01*
X0175234Y0111154D01*
X0174535Y0111247D01*
X0173834Y0111324D01*
X0173131Y0111383D01*
X0172427Y0111426D01*
X0171722Y0111451D01*
X0171017Y0111460D01*
X0171017Y0111461D02*
X0033692Y0111461D01*
X0032914Y0111452D01*
X0032137Y0111423D01*
X0031360Y0111376D01*
X0030585Y0111311D01*
X0029812Y0111226D01*
X0029041Y0111123D01*
X0028272Y0111001D01*
X0027507Y0110861D01*
X0026745Y0110703D01*
X0025988Y0110526D01*
X0025235Y0110330D01*
X0024487Y0110117D01*
X0023744Y0109885D01*
X0023007Y0109636D01*
X0022277Y0109369D01*
X0021553Y0109084D01*
X0020836Y0108782D01*
X0020126Y0108463D01*
X0019425Y0108127D01*
X0018732Y0107774D01*
X0018047Y0107404D01*
X0017372Y0107018D01*
X0016706Y0106615D01*
X0016050Y0106197D01*
X0015405Y0105762D01*
X0014770Y0105313D01*
X0014146Y0104848D01*
X0013534Y0104368D01*
X0012933Y0103874D01*
X0012345Y0103365D01*
X0011769Y0102842D01*
X0011206Y0102306D01*
X0010655Y0101755D01*
X0010119Y0101192D01*
X0009596Y0100616D01*
X0009087Y0100028D01*
X0008593Y0099427D01*
X0008113Y0098815D01*
X0007648Y0098191D01*
X0007199Y0097556D01*
X0006764Y0096911D01*
X0006346Y0096255D01*
X0005943Y0095589D01*
X0005557Y0094914D01*
X0005187Y0094229D01*
X0004834Y0093536D01*
X0004498Y0092835D01*
X0004179Y0092125D01*
X0003877Y0091408D01*
X0003592Y0090684D01*
X0003325Y0089954D01*
X0003076Y0089217D01*
X0002844Y0088474D01*
X0002631Y0087726D01*
X0002435Y0086973D01*
X0002258Y0086216D01*
X0002100Y0085454D01*
X0001960Y0084689D01*
X0001838Y0083920D01*
X0001735Y0083149D01*
X0001650Y0082376D01*
X0001585Y0081601D01*
X0001538Y0080824D01*
X0001509Y0080047D01*
X0001500Y0079269D01*
X0001500Y0026500D01*
X0001507Y0025896D01*
X0001529Y0025292D01*
X0001566Y0024689D01*
X0001617Y0024087D01*
X0001682Y0023487D01*
X0001762Y0022888D01*
X0001857Y0022291D01*
X0001966Y0021697D01*
X0002089Y0021105D01*
X0002226Y0020517D01*
X0002378Y0019932D01*
X0002544Y0019351D01*
X0002724Y0018775D01*
X0002917Y0018202D01*
X0003125Y0017635D01*
X0003346Y0017073D01*
X0003580Y0016516D01*
X0003828Y0015965D01*
X0004089Y0015420D01*
X0004364Y0014882D01*
X0004651Y0014350D01*
X0004951Y0013826D01*
X0005263Y0013309D01*
X0005588Y0012800D01*
X0005925Y0012298D01*
X0006275Y0011805D01*
X0006636Y0011321D01*
X0007008Y0010845D01*
X0007392Y0010379D01*
X0007787Y0009922D01*
X0008193Y0009475D01*
X0008610Y0009037D01*
X0009037Y0008610D01*
X0009475Y0008193D01*
X0009922Y0007787D01*
X0010379Y0007392D01*
X0010845Y0007008D01*
X0011321Y0006636D01*
X0011805Y0006275D01*
X0012298Y0005925D01*
X0012800Y0005588D01*
X0013309Y0005263D01*
X0013826Y0004951D01*
X0014350Y0004651D01*
X0014882Y0004364D01*
X0015420Y0004089D01*
X0015965Y0003828D01*
X0016516Y0003580D01*
X0017073Y0003346D01*
X0017635Y0003125D01*
X0018202Y0002917D01*
X0018775Y0002724D01*
X0019351Y0002544D01*
X0019932Y0002378D01*
X0020517Y0002226D01*
X0021105Y0002089D01*
X0021697Y0001966D01*
X0022291Y0001857D01*
X0022888Y0001762D01*
X0023487Y0001682D01*
X0024087Y0001617D01*
X0024689Y0001566D01*
X0025292Y0001529D01*
X0025896Y0001507D01*
X0026500Y0001500D01*
D11*
X0065629Y0033450D02*
X0065629Y0036350D01*
X0066435Y0036350D01*
X0066490Y0036348D01*
X0066545Y0036342D01*
X0066599Y0036333D01*
X0066652Y0036320D01*
X0066705Y0036303D01*
X0066756Y0036283D01*
X0066806Y0036260D01*
X0066854Y0036233D01*
X0066900Y0036202D01*
X0066944Y0036169D01*
X0066985Y0036133D01*
X0067024Y0036094D01*
X0067060Y0036053D01*
X0067093Y0036009D01*
X0067124Y0035963D01*
X0067151Y0035915D01*
X0067174Y0035865D01*
X0067194Y0035814D01*
X0067211Y0035761D01*
X0067224Y0035708D01*
X0067233Y0035654D01*
X0067239Y0035599D01*
X0067241Y0035544D01*
X0067239Y0035489D01*
X0067233Y0035434D01*
X0067224Y0035380D01*
X0067211Y0035327D01*
X0067194Y0035274D01*
X0067174Y0035223D01*
X0067151Y0035173D01*
X0067124Y0035125D01*
X0067093Y0035079D01*
X0067060Y0035035D01*
X0067024Y0034994D01*
X0066985Y0034955D01*
X0066944Y0034919D01*
X0066900Y0034886D01*
X0066854Y0034855D01*
X0066806Y0034828D01*
X0066756Y0034805D01*
X0066705Y0034785D01*
X0066652Y0034768D01*
X0066599Y0034755D01*
X0066545Y0034746D01*
X0066490Y0034740D01*
X0066435Y0034738D01*
X0066435Y0034739D02*
X0065629Y0034739D01*
X0066596Y0034739D02*
X0067240Y0033450D01*
X0068489Y0033450D02*
X0069456Y0033450D01*
X0069504Y0033452D01*
X0069552Y0033457D01*
X0069599Y0033466D01*
X0069646Y0033479D01*
X0069691Y0033495D01*
X0069735Y0033514D01*
X0069778Y0033536D01*
X0069819Y0033562D01*
X0069858Y0033591D01*
X0069894Y0033622D01*
X0069928Y0033656D01*
X0069959Y0033692D01*
X0069988Y0033731D01*
X0070014Y0033772D01*
X0070036Y0033815D01*
X0070055Y0033859D01*
X0070071Y0033904D01*
X0070084Y0033951D01*
X0070093Y0033998D01*
X0070098Y0034046D01*
X0070100Y0034094D01*
X0070100Y0034417D01*
X0070098Y0034465D01*
X0070093Y0034513D01*
X0070084Y0034560D01*
X0070071Y0034607D01*
X0070055Y0034652D01*
X0070036Y0034696D01*
X0070014Y0034739D01*
X0069988Y0034780D01*
X0069959Y0034819D01*
X0069928Y0034855D01*
X0069894Y0034889D01*
X0069858Y0034920D01*
X0069819Y0034949D01*
X0069778Y0034975D01*
X0069735Y0034997D01*
X0069691Y0035016D01*
X0069646Y0035032D01*
X0069599Y0035045D01*
X0069552Y0035054D01*
X0069504Y0035059D01*
X0069456Y0035061D01*
X0068489Y0035061D01*
X0068489Y0036350D01*
X0070100Y0036350D01*
X0056485Y0041344D02*
X0054874Y0041344D01*
X0055679Y0041344D02*
X0055679Y0044244D01*
X0054874Y0043600D01*
X0053379Y0042552D02*
X0052493Y0043036D01*
X0052815Y0044244D02*
X0052880Y0044242D01*
X0052944Y0044237D01*
X0053009Y0044228D01*
X0053072Y0044216D01*
X0053135Y0044201D01*
X0053197Y0044182D01*
X0053258Y0044160D01*
X0053317Y0044135D01*
X0053376Y0044106D01*
X0053432Y0044074D01*
X0053487Y0044040D01*
X0053540Y0044002D01*
X0052492Y0043036D02*
X0052452Y0043062D01*
X0052413Y0043091D01*
X0052376Y0043123D01*
X0052342Y0043158D01*
X0052311Y0043195D01*
X0052282Y0043234D01*
X0052256Y0043275D01*
X0052234Y0043318D01*
X0052215Y0043363D01*
X0052199Y0043409D01*
X0052186Y0043455D01*
X0052177Y0043503D01*
X0052172Y0043551D01*
X0052170Y0043600D01*
X0052171Y0043600D02*
X0052173Y0043648D01*
X0052178Y0043696D01*
X0052187Y0043743D01*
X0052200Y0043790D01*
X0052216Y0043835D01*
X0052235Y0043879D01*
X0052257Y0043922D01*
X0052283Y0043963D01*
X0052312Y0044002D01*
X0052343Y0044038D01*
X0052377Y0044072D01*
X0052413Y0044104D01*
X0052452Y0044132D01*
X0052493Y0044158D01*
X0052536Y0044180D01*
X0052580Y0044199D01*
X0052625Y0044215D01*
X0052672Y0044228D01*
X0052719Y0044237D01*
X0052767Y0044242D01*
X0052815Y0044244D01*
X0052090Y0041748D02*
X0052141Y0041698D01*
X0052196Y0041651D01*
X0052252Y0041608D01*
X0052311Y0041567D01*
X0052372Y0041529D01*
X0052435Y0041495D01*
X0052500Y0041464D01*
X0052566Y0041436D01*
X0052633Y0041412D01*
X0052702Y0041392D01*
X0052772Y0041375D01*
X0052842Y0041362D01*
X0052913Y0041353D01*
X0052984Y0041347D01*
X0053056Y0041345D01*
X0053104Y0041347D01*
X0053152Y0041352D01*
X0053199Y0041361D01*
X0053246Y0041374D01*
X0053291Y0041390D01*
X0053335Y0041409D01*
X0053378Y0041431D01*
X0053419Y0041457D01*
X0053458Y0041486D01*
X0053494Y0041517D01*
X0053528Y0041551D01*
X0053559Y0041587D01*
X0053588Y0041626D01*
X0053614Y0041667D01*
X0053636Y0041710D01*
X0053655Y0041754D01*
X0053671Y0041799D01*
X0053684Y0041846D01*
X0053693Y0041893D01*
X0053698Y0041941D01*
X0053700Y0041989D01*
X0053701Y0041989D02*
X0053699Y0042038D01*
X0053694Y0042086D01*
X0053685Y0042134D01*
X0053672Y0042180D01*
X0053656Y0042226D01*
X0053637Y0042271D01*
X0053615Y0042314D01*
X0053589Y0042355D01*
X0053560Y0042394D01*
X0053529Y0042431D01*
X0053495Y0042466D01*
X0053458Y0042498D01*
X0053419Y0042527D01*
X0053379Y0042553D01*
X0043779Y0048230D02*
X0043779Y0049537D01*
X0043779Y0048230D02*
X0042210Y0048230D01*
X0043779Y0048230D02*
X0043777Y0048141D01*
X0043771Y0048053D01*
X0043762Y0047964D01*
X0043749Y0047877D01*
X0043732Y0047789D01*
X0043712Y0047703D01*
X0043687Y0047618D01*
X0043660Y0047533D01*
X0043628Y0047450D01*
X0043593Y0047369D01*
X0043555Y0047289D01*
X0043513Y0047210D01*
X0043469Y0047134D01*
X0043420Y0047059D01*
X0043369Y0046987D01*
X0043315Y0046916D01*
X0043258Y0046849D01*
X0043198Y0046783D01*
X0043135Y0046720D01*
X0043069Y0046660D01*
X0043002Y0046603D01*
X0042931Y0046549D01*
X0042859Y0046498D01*
X0042784Y0046449D01*
X0042708Y0046405D01*
X0042629Y0046363D01*
X0042549Y0046325D01*
X0042468Y0046290D01*
X0042385Y0046258D01*
X0042300Y0046231D01*
X0042215Y0046206D01*
X0042129Y0046186D01*
X0042041Y0046169D01*
X0041954Y0046156D01*
X0041865Y0046147D01*
X0041777Y0046141D01*
X0041688Y0046139D01*
X0042210Y0048230D02*
X0042147Y0048232D01*
X0042084Y0048238D01*
X0042021Y0048247D01*
X0041960Y0048260D01*
X0041899Y0048277D01*
X0041839Y0048298D01*
X0041781Y0048322D01*
X0041724Y0048350D01*
X0041669Y0048381D01*
X0041616Y0048415D01*
X0041565Y0048453D01*
X0041516Y0048493D01*
X0041470Y0048536D01*
X0041427Y0048582D01*
X0041387Y0048631D01*
X0041349Y0048682D01*
X0041315Y0048735D01*
X0041284Y0048790D01*
X0041256Y0048847D01*
X0041232Y0048905D01*
X0041211Y0048965D01*
X0041194Y0049026D01*
X0041181Y0049087D01*
X0041172Y0049150D01*
X0041166Y0049213D01*
X0041164Y0049276D01*
X0041165Y0049276D02*
X0041165Y0049537D01*
X0041167Y0049608D01*
X0041173Y0049678D01*
X0041182Y0049748D01*
X0041196Y0049818D01*
X0041213Y0049887D01*
X0041233Y0049954D01*
X0041258Y0050021D01*
X0041286Y0050086D01*
X0041317Y0050149D01*
X0041352Y0050211D01*
X0041390Y0050270D01*
X0041432Y0050328D01*
X0041476Y0050383D01*
X0041523Y0050436D01*
X0041573Y0050486D01*
X0041626Y0050533D01*
X0041681Y0050577D01*
X0041739Y0050619D01*
X0041798Y0050657D01*
X0041860Y0050692D01*
X0041923Y0050723D01*
X0041988Y0050751D01*
X0042055Y0050776D01*
X0042122Y0050796D01*
X0042191Y0050813D01*
X0042261Y0050827D01*
X0042331Y0050836D01*
X0042401Y0050842D01*
X0042472Y0050844D01*
X0042543Y0050842D01*
X0042613Y0050836D01*
X0042683Y0050827D01*
X0042753Y0050813D01*
X0042822Y0050796D01*
X0042889Y0050776D01*
X0042956Y0050751D01*
X0043021Y0050723D01*
X0043084Y0050692D01*
X0043146Y0050657D01*
X0043205Y0050619D01*
X0043263Y0050577D01*
X0043318Y0050533D01*
X0043371Y0050486D01*
X0043421Y0050436D01*
X0043468Y0050383D01*
X0043512Y0050328D01*
X0043554Y0050270D01*
X0043592Y0050211D01*
X0043627Y0050149D01*
X0043658Y0050086D01*
X0043686Y0050021D01*
X0043711Y0049954D01*
X0043731Y0049887D01*
X0043748Y0049818D01*
X0043762Y0049748D01*
X0043771Y0049678D01*
X0043777Y0049608D01*
X0043779Y0049537D01*
X0043801Y0062163D02*
X0041183Y0062163D01*
X0042492Y0062163D02*
X0042492Y0066874D01*
X0041183Y0065827D01*
X0048312Y0064518D02*
X0048310Y0064401D01*
X0048305Y0064283D01*
X0048296Y0064166D01*
X0048284Y0064049D01*
X0048268Y0063933D01*
X0048248Y0063817D01*
X0048225Y0063702D01*
X0048199Y0063588D01*
X0048169Y0063474D01*
X0048136Y0063362D01*
X0048099Y0063250D01*
X0048059Y0063140D01*
X0048016Y0063031D01*
X0047969Y0062923D01*
X0047919Y0062816D01*
X0047919Y0062817D02*
X0047897Y0062761D01*
X0047873Y0062706D01*
X0047845Y0062653D01*
X0047814Y0062602D01*
X0047779Y0062553D01*
X0047742Y0062506D01*
X0047702Y0062461D01*
X0047659Y0062419D01*
X0047613Y0062380D01*
X0047566Y0062343D01*
X0047516Y0062310D01*
X0047464Y0062280D01*
X0047410Y0062253D01*
X0047355Y0062229D01*
X0047298Y0062209D01*
X0047241Y0062193D01*
X0047182Y0062180D01*
X0047123Y0062170D01*
X0047063Y0062165D01*
X0047003Y0062163D01*
X0046943Y0062165D01*
X0046883Y0062170D01*
X0046824Y0062180D01*
X0046765Y0062193D01*
X0046708Y0062209D01*
X0046651Y0062229D01*
X0046596Y0062253D01*
X0046542Y0062280D01*
X0046490Y0062310D01*
X0046440Y0062343D01*
X0046393Y0062380D01*
X0046347Y0062419D01*
X0046304Y0062461D01*
X0046264Y0062506D01*
X0046227Y0062553D01*
X0046192Y0062602D01*
X0046161Y0062653D01*
X0046133Y0062706D01*
X0046109Y0062761D01*
X0046087Y0062817D01*
X0045956Y0063210D02*
X0048050Y0065827D01*
X0047919Y0066220D02*
X0047897Y0066276D01*
X0047873Y0066331D01*
X0047845Y0066384D01*
X0047814Y0066435D01*
X0047779Y0066484D01*
X0047742Y0066531D01*
X0047702Y0066576D01*
X0047659Y0066618D01*
X0047613Y0066657D01*
X0047566Y0066694D01*
X0047516Y0066727D01*
X0047464Y0066757D01*
X0047410Y0066784D01*
X0047355Y0066808D01*
X0047298Y0066828D01*
X0047241Y0066844D01*
X0047182Y0066857D01*
X0047123Y0066867D01*
X0047063Y0066872D01*
X0047003Y0066874D01*
X0046943Y0066872D01*
X0046883Y0066867D01*
X0046824Y0066857D01*
X0046765Y0066844D01*
X0046708Y0066828D01*
X0046651Y0066808D01*
X0046596Y0066784D01*
X0046542Y0066757D01*
X0046490Y0066727D01*
X0046440Y0066694D01*
X0046393Y0066657D01*
X0046347Y0066618D01*
X0046304Y0066576D01*
X0046264Y0066531D01*
X0046227Y0066484D01*
X0046192Y0066435D01*
X0046161Y0066384D01*
X0046133Y0066331D01*
X0046109Y0066276D01*
X0046087Y0066220D01*
X0047919Y0066220D02*
X0047969Y0066113D01*
X0048016Y0066005D01*
X0048059Y0065896D01*
X0048099Y0065786D01*
X0048136Y0065674D01*
X0048169Y0065562D01*
X0048199Y0065448D01*
X0048225Y0065334D01*
X0048248Y0065219D01*
X0048268Y0065103D01*
X0048284Y0064987D01*
X0048296Y0064870D01*
X0048305Y0064753D01*
X0048310Y0064635D01*
X0048312Y0064518D01*
X0045693Y0064518D02*
X0045695Y0064635D01*
X0045700Y0064753D01*
X0045709Y0064870D01*
X0045721Y0064987D01*
X0045737Y0065103D01*
X0045757Y0065219D01*
X0045780Y0065334D01*
X0045806Y0065448D01*
X0045836Y0065562D01*
X0045869Y0065674D01*
X0045906Y0065786D01*
X0045946Y0065896D01*
X0045989Y0066005D01*
X0046036Y0066113D01*
X0046086Y0066220D01*
X0045693Y0064518D02*
X0045695Y0064401D01*
X0045700Y0064283D01*
X0045709Y0064166D01*
X0045721Y0064049D01*
X0045737Y0063933D01*
X0045757Y0063817D01*
X0045780Y0063702D01*
X0045806Y0063588D01*
X0045836Y0063474D01*
X0045869Y0063362D01*
X0045906Y0063250D01*
X0045946Y0063140D01*
X0045989Y0063031D01*
X0046036Y0062923D01*
X0046086Y0062816D01*
X0052900Y0070400D02*
X0052900Y0074100D01*
X0053928Y0074100D01*
X0053991Y0074098D01*
X0054054Y0074092D01*
X0054117Y0074082D01*
X0054179Y0074069D01*
X0054240Y0074052D01*
X0054299Y0074031D01*
X0054358Y0074006D01*
X0054414Y0073978D01*
X0054469Y0073946D01*
X0054522Y0073911D01*
X0054572Y0073873D01*
X0054621Y0073832D01*
X0054666Y0073788D01*
X0054709Y0073741D01*
X0054748Y0073692D01*
X0054785Y0073640D01*
X0054818Y0073586D01*
X0054848Y0073530D01*
X0054875Y0073473D01*
X0054898Y0073414D01*
X0054917Y0073353D01*
X0054932Y0073292D01*
X0054944Y0073230D01*
X0054952Y0073167D01*
X0054956Y0073104D01*
X0054956Y0073040D01*
X0054952Y0072977D01*
X0054944Y0072914D01*
X0054932Y0072852D01*
X0054917Y0072791D01*
X0054898Y0072730D01*
X0054875Y0072671D01*
X0054848Y0072614D01*
X0054818Y0072558D01*
X0054785Y0072504D01*
X0054748Y0072452D01*
X0054709Y0072403D01*
X0054666Y0072356D01*
X0054621Y0072312D01*
X0054572Y0072271D01*
X0054522Y0072233D01*
X0054469Y0072198D01*
X0054414Y0072166D01*
X0054358Y0072138D01*
X0054299Y0072113D01*
X0054240Y0072092D01*
X0054179Y0072075D01*
X0054117Y0072062D01*
X0054054Y0072052D01*
X0053991Y0072046D01*
X0053928Y0072044D01*
X0052900Y0072044D01*
X0054133Y0072044D02*
X0054956Y0070400D01*
X0056604Y0070400D02*
X0056604Y0074100D01*
X0058249Y0074100D01*
X0057838Y0072456D02*
X0056604Y0072456D01*
X0056604Y0070400D02*
X0058249Y0070400D01*
X0061122Y0071941D02*
X0061168Y0071912D01*
X0061211Y0071880D01*
X0061253Y0071846D01*
X0061292Y0071808D01*
X0061329Y0071769D01*
X0061363Y0071727D01*
X0061395Y0071682D01*
X0061423Y0071636D01*
X0061448Y0071588D01*
X0061471Y0071539D01*
X0061489Y0071488D01*
X0061505Y0071436D01*
X0061517Y0071384D01*
X0061526Y0071330D01*
X0061531Y0071276D01*
X0061533Y0071222D01*
X0061531Y0071166D01*
X0061525Y0071110D01*
X0061516Y0071055D01*
X0061503Y0071000D01*
X0061486Y0070947D01*
X0061465Y0070895D01*
X0061441Y0070844D01*
X0061413Y0070795D01*
X0061383Y0070748D01*
X0061349Y0070703D01*
X0061312Y0070661D01*
X0061272Y0070621D01*
X0061230Y0070584D01*
X0061185Y0070550D01*
X0061138Y0070520D01*
X0061089Y0070492D01*
X0061038Y0070468D01*
X0060986Y0070447D01*
X0060933Y0070430D01*
X0060878Y0070417D01*
X0060823Y0070408D01*
X0060767Y0070402D01*
X0060711Y0070400D01*
X0061122Y0071942D02*
X0059991Y0072558D01*
X0060402Y0074100D02*
X0060478Y0074098D01*
X0060554Y0074092D01*
X0060630Y0074083D01*
X0060705Y0074070D01*
X0060780Y0074053D01*
X0060853Y0074032D01*
X0060926Y0074008D01*
X0060997Y0073981D01*
X0061066Y0073949D01*
X0061135Y0073915D01*
X0061201Y0073877D01*
X0061265Y0073836D01*
X0061327Y0073792D01*
X0059991Y0072559D02*
X0059945Y0072588D01*
X0059902Y0072620D01*
X0059860Y0072654D01*
X0059821Y0072692D01*
X0059784Y0072731D01*
X0059750Y0072773D01*
X0059718Y0072818D01*
X0059690Y0072864D01*
X0059665Y0072912D01*
X0059642Y0072961D01*
X0059624Y0073012D01*
X0059608Y0073064D01*
X0059596Y0073116D01*
X0059587Y0073170D01*
X0059582Y0073224D01*
X0059580Y0073278D01*
X0059582Y0073334D01*
X0059588Y0073390D01*
X0059597Y0073445D01*
X0059610Y0073500D01*
X0059627Y0073553D01*
X0059648Y0073605D01*
X0059672Y0073656D01*
X0059700Y0073705D01*
X0059730Y0073752D01*
X0059764Y0073797D01*
X0059801Y0073839D01*
X0059841Y0073879D01*
X0059883Y0073916D01*
X0059928Y0073950D01*
X0059975Y0073980D01*
X0060024Y0074008D01*
X0060075Y0074032D01*
X0060127Y0074053D01*
X0060180Y0074070D01*
X0060235Y0074083D01*
X0060290Y0074092D01*
X0060346Y0074098D01*
X0060402Y0074100D01*
X0063084Y0074100D02*
X0064729Y0074100D01*
X0065837Y0074100D02*
X0067893Y0074100D01*
X0066865Y0074100D02*
X0066865Y0070400D01*
X0064729Y0070400D02*
X0063084Y0070400D01*
X0063084Y0074100D01*
X0063084Y0072456D02*
X0064318Y0072456D01*
X0060711Y0070400D02*
X0060630Y0070402D01*
X0060550Y0070407D01*
X0060470Y0070417D01*
X0060390Y0070430D01*
X0060311Y0070447D01*
X0060233Y0070467D01*
X0060156Y0070491D01*
X0060080Y0070519D01*
X0060006Y0070550D01*
X0059933Y0070584D01*
X0059862Y0070622D01*
X0059792Y0070663D01*
X0059725Y0070707D01*
X0059659Y0070754D01*
X0059596Y0070805D01*
X0059536Y0070858D01*
X0059478Y0070914D01*
X0087584Y0062169D02*
X0090205Y0062169D01*
X0087584Y0062169D02*
X0089812Y0064790D01*
X0089026Y0066886D02*
X0088950Y0066884D01*
X0088874Y0066878D01*
X0088798Y0066869D01*
X0088723Y0066855D01*
X0088649Y0066838D01*
X0088576Y0066818D01*
X0088503Y0066793D01*
X0088433Y0066765D01*
X0088363Y0066733D01*
X0088296Y0066698D01*
X0088230Y0066660D01*
X0088166Y0066618D01*
X0088104Y0066573D01*
X0088045Y0066526D01*
X0087988Y0066475D01*
X0087934Y0066421D01*
X0087883Y0066365D01*
X0087834Y0066306D01*
X0087789Y0066245D01*
X0087746Y0066182D01*
X0087707Y0066116D01*
X0087671Y0066049D01*
X0087639Y0065980D01*
X0087610Y0065910D01*
X0087585Y0065838D01*
X0089812Y0064790D02*
X0089860Y0064838D01*
X0089906Y0064889D01*
X0089948Y0064942D01*
X0089988Y0064998D01*
X0090025Y0065056D01*
X0090058Y0065115D01*
X0090089Y0065177D01*
X0090116Y0065240D01*
X0090139Y0065304D01*
X0090159Y0065369D01*
X0090176Y0065436D01*
X0090188Y0065503D01*
X0090198Y0065570D01*
X0090203Y0065639D01*
X0090205Y0065707D01*
X0090203Y0065773D01*
X0090198Y0065839D01*
X0090188Y0065904D01*
X0090175Y0065969D01*
X0090159Y0066033D01*
X0090139Y0066096D01*
X0090115Y0066158D01*
X0090088Y0066219D01*
X0090058Y0066277D01*
X0090024Y0066334D01*
X0089988Y0066389D01*
X0089948Y0066442D01*
X0089905Y0066493D01*
X0089860Y0066541D01*
X0089812Y0066586D01*
X0089761Y0066629D01*
X0089708Y0066669D01*
X0089653Y0066705D01*
X0089596Y0066739D01*
X0089538Y0066769D01*
X0089477Y0066796D01*
X0089415Y0066820D01*
X0089352Y0066840D01*
X0089288Y0066856D01*
X0089223Y0066869D01*
X0089158Y0066879D01*
X0089092Y0066884D01*
X0089026Y0066886D01*
X0088913Y0050837D02*
X0087604Y0049789D01*
X0088913Y0050837D02*
X0088913Y0046124D01*
X0087604Y0046124D02*
X0090222Y0046124D01*
X0121165Y0049276D02*
X0121165Y0049537D01*
X0121164Y0049276D02*
X0121166Y0049213D01*
X0121172Y0049150D01*
X0121181Y0049087D01*
X0121194Y0049026D01*
X0121211Y0048965D01*
X0121232Y0048905D01*
X0121256Y0048847D01*
X0121284Y0048790D01*
X0121315Y0048735D01*
X0121349Y0048682D01*
X0121387Y0048631D01*
X0121427Y0048582D01*
X0121470Y0048536D01*
X0121516Y0048493D01*
X0121565Y0048453D01*
X0121616Y0048415D01*
X0121669Y0048381D01*
X0121724Y0048350D01*
X0121781Y0048322D01*
X0121839Y0048298D01*
X0121899Y0048277D01*
X0121960Y0048260D01*
X0122021Y0048247D01*
X0122084Y0048238D01*
X0122147Y0048232D01*
X0122210Y0048230D01*
X0123779Y0048230D01*
X0123779Y0049537D01*
X0123777Y0049608D01*
X0123771Y0049678D01*
X0123762Y0049748D01*
X0123748Y0049818D01*
X0123731Y0049887D01*
X0123711Y0049954D01*
X0123686Y0050021D01*
X0123658Y0050086D01*
X0123627Y0050149D01*
X0123592Y0050211D01*
X0123554Y0050270D01*
X0123512Y0050328D01*
X0123468Y0050383D01*
X0123421Y0050436D01*
X0123371Y0050486D01*
X0123318Y0050533D01*
X0123263Y0050577D01*
X0123205Y0050619D01*
X0123146Y0050657D01*
X0123084Y0050692D01*
X0123021Y0050723D01*
X0122956Y0050751D01*
X0122889Y0050776D01*
X0122822Y0050796D01*
X0122753Y0050813D01*
X0122683Y0050827D01*
X0122613Y0050836D01*
X0122543Y0050842D01*
X0122472Y0050844D01*
X0122401Y0050842D01*
X0122331Y0050836D01*
X0122261Y0050827D01*
X0122191Y0050813D01*
X0122122Y0050796D01*
X0122055Y0050776D01*
X0121988Y0050751D01*
X0121923Y0050723D01*
X0121860Y0050692D01*
X0121798Y0050657D01*
X0121739Y0050619D01*
X0121681Y0050577D01*
X0121626Y0050533D01*
X0121573Y0050486D01*
X0121523Y0050436D01*
X0121476Y0050383D01*
X0121432Y0050328D01*
X0121390Y0050270D01*
X0121352Y0050211D01*
X0121317Y0050149D01*
X0121286Y0050086D01*
X0121258Y0050021D01*
X0121233Y0049954D01*
X0121213Y0049887D01*
X0121196Y0049818D01*
X0121182Y0049748D01*
X0121173Y0049678D01*
X0121167Y0049608D01*
X0121165Y0049537D01*
X0123779Y0048230D02*
X0123777Y0048141D01*
X0123771Y0048053D01*
X0123762Y0047964D01*
X0123749Y0047877D01*
X0123732Y0047789D01*
X0123712Y0047703D01*
X0123687Y0047618D01*
X0123660Y0047533D01*
X0123628Y0047450D01*
X0123593Y0047369D01*
X0123555Y0047289D01*
X0123513Y0047210D01*
X0123469Y0047134D01*
X0123420Y0047059D01*
X0123369Y0046987D01*
X0123315Y0046916D01*
X0123258Y0046849D01*
X0123198Y0046783D01*
X0123135Y0046720D01*
X0123069Y0046660D01*
X0123002Y0046603D01*
X0122931Y0046549D01*
X0122859Y0046498D01*
X0122784Y0046449D01*
X0122708Y0046405D01*
X0122629Y0046363D01*
X0122549Y0046325D01*
X0122468Y0046290D01*
X0122385Y0046258D01*
X0122300Y0046231D01*
X0122215Y0046206D01*
X0122129Y0046186D01*
X0122041Y0046169D01*
X0121954Y0046156D01*
X0121865Y0046147D01*
X0121777Y0046141D01*
X0121688Y0046139D01*
X0121183Y0062163D02*
X0123801Y0062163D01*
X0122492Y0062163D02*
X0122492Y0066874D01*
X0121183Y0065827D01*
X0128312Y0064518D02*
X0128310Y0064401D01*
X0128305Y0064283D01*
X0128296Y0064166D01*
X0128284Y0064049D01*
X0128268Y0063933D01*
X0128248Y0063817D01*
X0128225Y0063702D01*
X0128199Y0063588D01*
X0128169Y0063474D01*
X0128136Y0063362D01*
X0128099Y0063250D01*
X0128059Y0063140D01*
X0128016Y0063031D01*
X0127969Y0062923D01*
X0127919Y0062816D01*
X0127919Y0062817D02*
X0127897Y0062761D01*
X0127873Y0062706D01*
X0127845Y0062653D01*
X0127814Y0062602D01*
X0127779Y0062553D01*
X0127742Y0062506D01*
X0127702Y0062461D01*
X0127659Y0062419D01*
X0127613Y0062380D01*
X0127566Y0062343D01*
X0127516Y0062310D01*
X0127464Y0062280D01*
X0127410Y0062253D01*
X0127355Y0062229D01*
X0127298Y0062209D01*
X0127241Y0062193D01*
X0127182Y0062180D01*
X0127123Y0062170D01*
X0127063Y0062165D01*
X0127003Y0062163D01*
X0126943Y0062165D01*
X0126883Y0062170D01*
X0126824Y0062180D01*
X0126765Y0062193D01*
X0126708Y0062209D01*
X0126651Y0062229D01*
X0126596Y0062253D01*
X0126542Y0062280D01*
X0126490Y0062310D01*
X0126440Y0062343D01*
X0126393Y0062380D01*
X0126347Y0062419D01*
X0126304Y0062461D01*
X0126264Y0062506D01*
X0126227Y0062553D01*
X0126192Y0062602D01*
X0126161Y0062653D01*
X0126133Y0062706D01*
X0126109Y0062761D01*
X0126087Y0062817D01*
X0125956Y0063210D02*
X0128050Y0065827D01*
X0127919Y0066220D02*
X0127897Y0066276D01*
X0127873Y0066331D01*
X0127845Y0066384D01*
X0127814Y0066435D01*
X0127779Y0066484D01*
X0127742Y0066531D01*
X0127702Y0066576D01*
X0127659Y0066618D01*
X0127613Y0066657D01*
X0127566Y0066694D01*
X0127516Y0066727D01*
X0127464Y0066757D01*
X0127410Y0066784D01*
X0127355Y0066808D01*
X0127298Y0066828D01*
X0127241Y0066844D01*
X0127182Y0066857D01*
X0127123Y0066867D01*
X0127063Y0066872D01*
X0127003Y0066874D01*
X0126943Y0066872D01*
X0126883Y0066867D01*
X0126824Y0066857D01*
X0126765Y0066844D01*
X0126708Y0066828D01*
X0126651Y0066808D01*
X0126596Y0066784D01*
X0126542Y0066757D01*
X0126490Y0066727D01*
X0126440Y0066694D01*
X0126393Y0066657D01*
X0126347Y0066618D01*
X0126304Y0066576D01*
X0126264Y0066531D01*
X0126227Y0066484D01*
X0126192Y0066435D01*
X0126161Y0066384D01*
X0126133Y0066331D01*
X0126109Y0066276D01*
X0126087Y0066220D01*
X0127919Y0066220D02*
X0127969Y0066113D01*
X0128016Y0066005D01*
X0128059Y0065896D01*
X0128099Y0065786D01*
X0128136Y0065674D01*
X0128169Y0065562D01*
X0128199Y0065448D01*
X0128225Y0065334D01*
X0128248Y0065219D01*
X0128268Y0065103D01*
X0128284Y0064987D01*
X0128296Y0064870D01*
X0128305Y0064753D01*
X0128310Y0064635D01*
X0128312Y0064518D01*
X0125693Y0064518D02*
X0125695Y0064635D01*
X0125700Y0064753D01*
X0125709Y0064870D01*
X0125721Y0064987D01*
X0125737Y0065103D01*
X0125757Y0065219D01*
X0125780Y0065334D01*
X0125806Y0065448D01*
X0125836Y0065562D01*
X0125869Y0065674D01*
X0125906Y0065786D01*
X0125946Y0065896D01*
X0125989Y0066005D01*
X0126036Y0066113D01*
X0126086Y0066220D01*
X0125693Y0064518D02*
X0125695Y0064401D01*
X0125700Y0064283D01*
X0125709Y0064166D01*
X0125721Y0064049D01*
X0125737Y0063933D01*
X0125757Y0063817D01*
X0125780Y0063702D01*
X0125806Y0063588D01*
X0125836Y0063474D01*
X0125869Y0063362D01*
X0125906Y0063250D01*
X0125946Y0063140D01*
X0125989Y0063031D01*
X0126036Y0062923D01*
X0126086Y0062816D01*
X0131724Y0072200D02*
X0132369Y0072200D01*
X0131724Y0072200D02*
X0131676Y0072202D01*
X0131628Y0072207D01*
X0131581Y0072216D01*
X0131534Y0072229D01*
X0131489Y0072245D01*
X0131445Y0072264D01*
X0131402Y0072286D01*
X0131361Y0072312D01*
X0131322Y0072341D01*
X0131286Y0072372D01*
X0131252Y0072406D01*
X0131221Y0072442D01*
X0131192Y0072481D01*
X0131166Y0072522D01*
X0131144Y0072565D01*
X0131125Y0072609D01*
X0131109Y0072654D01*
X0131096Y0072701D01*
X0131087Y0072748D01*
X0131082Y0072796D01*
X0131080Y0072844D01*
X0131080Y0074456D01*
X0131082Y0074507D01*
X0131088Y0074557D01*
X0131098Y0074606D01*
X0131112Y0074655D01*
X0131129Y0074702D01*
X0131150Y0074748D01*
X0131175Y0074792D01*
X0131203Y0074835D01*
X0131234Y0074874D01*
X0131269Y0074911D01*
X0131306Y0074946D01*
X0131345Y0074977D01*
X0131388Y0075005D01*
X0131432Y0075030D01*
X0131478Y0075051D01*
X0131525Y0075068D01*
X0131574Y0075082D01*
X0131623Y0075092D01*
X0131673Y0075098D01*
X0131724Y0075100D01*
X0132369Y0075100D01*
X0133489Y0075100D02*
X0134456Y0075100D01*
X0134505Y0075098D01*
X0134554Y0075092D01*
X0134603Y0075083D01*
X0134650Y0075070D01*
X0134697Y0075053D01*
X0134742Y0075033D01*
X0134785Y0075010D01*
X0134827Y0074983D01*
X0134866Y0074953D01*
X0134903Y0074920D01*
X0134937Y0074884D01*
X0134968Y0074846D01*
X0134997Y0074806D01*
X0135022Y0074764D01*
X0135044Y0074719D01*
X0135062Y0074674D01*
X0135077Y0074627D01*
X0135088Y0074579D01*
X0135096Y0074530D01*
X0135100Y0074481D01*
X0135100Y0074431D01*
X0135096Y0074382D01*
X0135088Y0074333D01*
X0135077Y0074285D01*
X0135062Y0074238D01*
X0135044Y0074193D01*
X0135022Y0074148D01*
X0134997Y0074106D01*
X0134968Y0074066D01*
X0134937Y0074028D01*
X0134903Y0073992D01*
X0134866Y0073959D01*
X0134827Y0073929D01*
X0134785Y0073902D01*
X0134742Y0073879D01*
X0134697Y0073859D01*
X0134650Y0073842D01*
X0134603Y0073829D01*
X0134554Y0073820D01*
X0134505Y0073814D01*
X0134456Y0073812D01*
X0134456Y0073811D02*
X0133811Y0073811D01*
X0134294Y0073812D02*
X0134349Y0073810D01*
X0134404Y0073804D01*
X0134458Y0073795D01*
X0134511Y0073782D01*
X0134564Y0073765D01*
X0134615Y0073745D01*
X0134665Y0073722D01*
X0134713Y0073695D01*
X0134759Y0073664D01*
X0134803Y0073631D01*
X0134844Y0073595D01*
X0134883Y0073556D01*
X0134919Y0073515D01*
X0134952Y0073471D01*
X0134983Y0073425D01*
X0135010Y0073377D01*
X0135033Y0073327D01*
X0135053Y0073276D01*
X0135070Y0073223D01*
X0135083Y0073170D01*
X0135092Y0073116D01*
X0135098Y0073061D01*
X0135100Y0073006D01*
X0135098Y0072951D01*
X0135092Y0072896D01*
X0135083Y0072842D01*
X0135070Y0072789D01*
X0135053Y0072736D01*
X0135033Y0072685D01*
X0135010Y0072635D01*
X0134983Y0072587D01*
X0134952Y0072541D01*
X0134919Y0072497D01*
X0134883Y0072456D01*
X0134844Y0072417D01*
X0134803Y0072381D01*
X0134759Y0072348D01*
X0134713Y0072317D01*
X0134665Y0072290D01*
X0134615Y0072267D01*
X0134564Y0072247D01*
X0134511Y0072230D01*
X0134458Y0072217D01*
X0134404Y0072208D01*
X0134349Y0072202D01*
X0134294Y0072200D01*
X0133489Y0072200D01*
X0155400Y0071406D02*
X0155400Y0069794D01*
X0155402Y0069746D01*
X0155407Y0069698D01*
X0155416Y0069651D01*
X0155429Y0069604D01*
X0155445Y0069559D01*
X0155464Y0069515D01*
X0155486Y0069472D01*
X0155512Y0069431D01*
X0155541Y0069392D01*
X0155572Y0069356D01*
X0155606Y0069322D01*
X0155642Y0069291D01*
X0155681Y0069262D01*
X0155722Y0069236D01*
X0155765Y0069214D01*
X0155809Y0069195D01*
X0155854Y0069179D01*
X0155901Y0069166D01*
X0155948Y0069157D01*
X0155996Y0069152D01*
X0156044Y0069150D01*
X0156689Y0069150D01*
X0157809Y0069150D02*
X0159420Y0069150D01*
X0157809Y0069150D02*
X0159179Y0070761D01*
X0158695Y0072050D02*
X0158636Y0072048D01*
X0158578Y0072043D01*
X0158520Y0072033D01*
X0158463Y0072021D01*
X0158407Y0072004D01*
X0158352Y0071985D01*
X0158298Y0071961D01*
X0158246Y0071935D01*
X0158196Y0071905D01*
X0158147Y0071872D01*
X0158101Y0071836D01*
X0158057Y0071797D01*
X0158016Y0071756D01*
X0157977Y0071712D01*
X0157941Y0071666D01*
X0157909Y0071617D01*
X0157879Y0071567D01*
X0157852Y0071515D01*
X0157829Y0071461D01*
X0157809Y0071406D01*
X0159178Y0070761D02*
X0159215Y0070798D01*
X0159249Y0070838D01*
X0159281Y0070880D01*
X0159309Y0070925D01*
X0159335Y0070971D01*
X0159357Y0071018D01*
X0159376Y0071067D01*
X0159392Y0071117D01*
X0159404Y0071168D01*
X0159413Y0071220D01*
X0159418Y0071272D01*
X0159420Y0071325D01*
X0159418Y0071377D01*
X0159413Y0071428D01*
X0159403Y0071479D01*
X0159391Y0071529D01*
X0159374Y0071578D01*
X0159354Y0071626D01*
X0159331Y0071672D01*
X0159305Y0071717D01*
X0159275Y0071759D01*
X0159243Y0071800D01*
X0159208Y0071838D01*
X0159170Y0071873D01*
X0159129Y0071905D01*
X0159087Y0071935D01*
X0159042Y0071961D01*
X0158996Y0071984D01*
X0158948Y0072004D01*
X0158899Y0072021D01*
X0158849Y0072033D01*
X0158798Y0072043D01*
X0158747Y0072048D01*
X0158695Y0072050D01*
X0156689Y0072050D02*
X0156044Y0072050D01*
X0155993Y0072048D01*
X0155943Y0072042D01*
X0155894Y0072032D01*
X0155845Y0072018D01*
X0155798Y0072001D01*
X0155752Y0071980D01*
X0155708Y0071955D01*
X0155665Y0071927D01*
X0155626Y0071896D01*
X0155589Y0071861D01*
X0155554Y0071824D01*
X0155523Y0071785D01*
X0155495Y0071742D01*
X0155470Y0071698D01*
X0155449Y0071652D01*
X0155432Y0071605D01*
X0155418Y0071556D01*
X0155408Y0071507D01*
X0155402Y0071457D01*
X0155400Y0071406D01*
X0155629Y0078450D02*
X0155629Y0081350D01*
X0156435Y0081350D01*
X0156490Y0081348D01*
X0156545Y0081342D01*
X0156599Y0081333D01*
X0156652Y0081320D01*
X0156705Y0081303D01*
X0156756Y0081283D01*
X0156806Y0081260D01*
X0156854Y0081233D01*
X0156900Y0081202D01*
X0156944Y0081169D01*
X0156985Y0081133D01*
X0157024Y0081094D01*
X0157060Y0081053D01*
X0157093Y0081009D01*
X0157124Y0080963D01*
X0157151Y0080915D01*
X0157174Y0080865D01*
X0157194Y0080814D01*
X0157211Y0080761D01*
X0157224Y0080708D01*
X0157233Y0080654D01*
X0157239Y0080599D01*
X0157241Y0080544D01*
X0157239Y0080489D01*
X0157233Y0080434D01*
X0157224Y0080380D01*
X0157211Y0080327D01*
X0157194Y0080274D01*
X0157174Y0080223D01*
X0157151Y0080173D01*
X0157124Y0080125D01*
X0157093Y0080079D01*
X0157060Y0080035D01*
X0157024Y0079994D01*
X0156985Y0079955D01*
X0156944Y0079919D01*
X0156900Y0079886D01*
X0156854Y0079855D01*
X0156806Y0079828D01*
X0156756Y0079805D01*
X0156705Y0079785D01*
X0156652Y0079768D01*
X0156599Y0079755D01*
X0156545Y0079746D01*
X0156490Y0079740D01*
X0156435Y0079738D01*
X0156435Y0079739D02*
X0155629Y0079739D01*
X0156596Y0079739D02*
X0157240Y0078450D01*
X0158489Y0078450D02*
X0159858Y0080061D01*
X0159375Y0081350D02*
X0159316Y0081348D01*
X0159258Y0081343D01*
X0159200Y0081333D01*
X0159143Y0081321D01*
X0159087Y0081304D01*
X0159032Y0081285D01*
X0158978Y0081261D01*
X0158926Y0081235D01*
X0158876Y0081205D01*
X0158827Y0081172D01*
X0158781Y0081136D01*
X0158737Y0081097D01*
X0158696Y0081056D01*
X0158657Y0081012D01*
X0158621Y0080966D01*
X0158589Y0080917D01*
X0158559Y0080867D01*
X0158532Y0080815D01*
X0158509Y0080761D01*
X0158489Y0080706D01*
X0159858Y0080061D02*
X0159895Y0080098D01*
X0159929Y0080138D01*
X0159961Y0080180D01*
X0159989Y0080225D01*
X0160015Y0080271D01*
X0160037Y0080318D01*
X0160056Y0080367D01*
X0160072Y0080417D01*
X0160084Y0080468D01*
X0160093Y0080520D01*
X0160098Y0080572D01*
X0160100Y0080625D01*
X0160098Y0080677D01*
X0160093Y0080728D01*
X0160083Y0080779D01*
X0160071Y0080829D01*
X0160054Y0080878D01*
X0160034Y0080926D01*
X0160011Y0080972D01*
X0159985Y0081017D01*
X0159955Y0081059D01*
X0159923Y0081100D01*
X0159888Y0081138D01*
X0159850Y0081173D01*
X0159809Y0081205D01*
X0159767Y0081235D01*
X0159722Y0081261D01*
X0159676Y0081284D01*
X0159628Y0081304D01*
X0159579Y0081321D01*
X0159529Y0081333D01*
X0159478Y0081343D01*
X0159427Y0081348D01*
X0159375Y0081350D01*
X0160100Y0078450D02*
X0158489Y0078450D01*
X0158489Y0087200D02*
X0159294Y0087200D01*
X0159349Y0087202D01*
X0159404Y0087208D01*
X0159458Y0087217D01*
X0159511Y0087230D01*
X0159564Y0087247D01*
X0159615Y0087267D01*
X0159665Y0087290D01*
X0159713Y0087317D01*
X0159759Y0087348D01*
X0159803Y0087381D01*
X0159844Y0087417D01*
X0159883Y0087456D01*
X0159919Y0087497D01*
X0159952Y0087541D01*
X0159983Y0087587D01*
X0160010Y0087635D01*
X0160033Y0087685D01*
X0160053Y0087736D01*
X0160070Y0087789D01*
X0160083Y0087842D01*
X0160092Y0087896D01*
X0160098Y0087951D01*
X0160100Y0088006D01*
X0160098Y0088061D01*
X0160092Y0088116D01*
X0160083Y0088170D01*
X0160070Y0088223D01*
X0160053Y0088276D01*
X0160033Y0088327D01*
X0160010Y0088377D01*
X0159983Y0088425D01*
X0159952Y0088471D01*
X0159919Y0088515D01*
X0159883Y0088556D01*
X0159844Y0088595D01*
X0159803Y0088631D01*
X0159759Y0088664D01*
X0159713Y0088695D01*
X0159665Y0088722D01*
X0159615Y0088745D01*
X0159564Y0088765D01*
X0159511Y0088782D01*
X0159458Y0088795D01*
X0159404Y0088804D01*
X0159349Y0088810D01*
X0159294Y0088812D01*
X0159456Y0088811D02*
X0158811Y0088811D01*
X0159456Y0088812D02*
X0159505Y0088814D01*
X0159554Y0088820D01*
X0159603Y0088829D01*
X0159650Y0088842D01*
X0159697Y0088859D01*
X0159742Y0088879D01*
X0159785Y0088902D01*
X0159827Y0088929D01*
X0159866Y0088959D01*
X0159903Y0088992D01*
X0159937Y0089028D01*
X0159968Y0089066D01*
X0159997Y0089106D01*
X0160022Y0089148D01*
X0160044Y0089193D01*
X0160062Y0089238D01*
X0160077Y0089285D01*
X0160088Y0089333D01*
X0160096Y0089382D01*
X0160100Y0089431D01*
X0160100Y0089481D01*
X0160096Y0089530D01*
X0160088Y0089579D01*
X0160077Y0089627D01*
X0160062Y0089674D01*
X0160044Y0089719D01*
X0160022Y0089764D01*
X0159997Y0089806D01*
X0159968Y0089846D01*
X0159937Y0089884D01*
X0159903Y0089920D01*
X0159866Y0089953D01*
X0159827Y0089983D01*
X0159785Y0090010D01*
X0159742Y0090033D01*
X0159697Y0090053D01*
X0159650Y0090070D01*
X0159603Y0090083D01*
X0159554Y0090092D01*
X0159505Y0090098D01*
X0159456Y0090100D01*
X0158489Y0090100D01*
X0156435Y0090100D02*
X0155629Y0090100D01*
X0155629Y0087200D01*
X0155629Y0088489D02*
X0156435Y0088489D01*
X0156596Y0088489D02*
X0157240Y0087200D01*
X0156435Y0088488D02*
X0156490Y0088490D01*
X0156545Y0088496D01*
X0156599Y0088505D01*
X0156652Y0088518D01*
X0156705Y0088535D01*
X0156756Y0088555D01*
X0156806Y0088578D01*
X0156854Y0088605D01*
X0156900Y0088636D01*
X0156944Y0088669D01*
X0156985Y0088705D01*
X0157024Y0088744D01*
X0157060Y0088785D01*
X0157093Y0088829D01*
X0157124Y0088875D01*
X0157151Y0088923D01*
X0157174Y0088973D01*
X0157194Y0089024D01*
X0157211Y0089077D01*
X0157224Y0089130D01*
X0157233Y0089184D01*
X0157239Y0089239D01*
X0157241Y0089294D01*
X0157239Y0089349D01*
X0157233Y0089404D01*
X0157224Y0089458D01*
X0157211Y0089511D01*
X0157194Y0089564D01*
X0157174Y0089615D01*
X0157151Y0089665D01*
X0157124Y0089713D01*
X0157093Y0089759D01*
X0157060Y0089803D01*
X0157024Y0089844D01*
X0156985Y0089883D01*
X0156944Y0089919D01*
X0156900Y0089952D01*
X0156854Y0089983D01*
X0156806Y0090010D01*
X0156756Y0090033D01*
X0156705Y0090053D01*
X0156652Y0090070D01*
X0156599Y0090083D01*
X0156545Y0090092D01*
X0156490Y0090098D01*
X0156435Y0090100D01*
X0185400Y0089550D02*
X0185400Y0086650D01*
X0185400Y0087939D02*
X0186206Y0087939D01*
X0186367Y0087939D02*
X0187011Y0086650D01*
X0188099Y0086650D02*
X0190032Y0089550D01*
X0188099Y0089550D02*
X0190032Y0086650D01*
X0186206Y0087938D02*
X0186261Y0087940D01*
X0186316Y0087946D01*
X0186370Y0087955D01*
X0186423Y0087968D01*
X0186476Y0087985D01*
X0186527Y0088005D01*
X0186577Y0088028D01*
X0186625Y0088055D01*
X0186671Y0088086D01*
X0186715Y0088119D01*
X0186756Y0088155D01*
X0186795Y0088194D01*
X0186831Y0088235D01*
X0186864Y0088279D01*
X0186895Y0088325D01*
X0186922Y0088373D01*
X0186945Y0088423D01*
X0186965Y0088474D01*
X0186982Y0088527D01*
X0186995Y0088580D01*
X0187004Y0088634D01*
X0187010Y0088689D01*
X0187012Y0088744D01*
X0187010Y0088799D01*
X0187004Y0088854D01*
X0186995Y0088908D01*
X0186982Y0088961D01*
X0186965Y0089014D01*
X0186945Y0089065D01*
X0186922Y0089115D01*
X0186895Y0089163D01*
X0186864Y0089209D01*
X0186831Y0089253D01*
X0186795Y0089294D01*
X0186756Y0089333D01*
X0186715Y0089369D01*
X0186671Y0089402D01*
X0186625Y0089433D01*
X0186577Y0089460D01*
X0186527Y0089483D01*
X0186476Y0089503D01*
X0186423Y0089520D01*
X0186370Y0089533D01*
X0186316Y0089542D01*
X0186261Y0089548D01*
X0186206Y0089550D01*
X0185400Y0089550D01*
X0185400Y0080800D02*
X0187011Y0080800D01*
X0186206Y0080800D02*
X0186206Y0077900D01*
X0187927Y0077900D02*
X0189860Y0080800D01*
X0187927Y0080800D02*
X0189860Y0077900D01*
X0183314Y0073914D02*
X0182509Y0073270D01*
X0183314Y0073914D02*
X0183314Y0071014D01*
X0182509Y0071014D02*
X0184120Y0071014D01*
X0180576Y0072303D02*
X0179771Y0072303D01*
X0180576Y0072302D02*
X0180631Y0072304D01*
X0180686Y0072310D01*
X0180740Y0072319D01*
X0180793Y0072332D01*
X0180846Y0072349D01*
X0180897Y0072369D01*
X0180947Y0072392D01*
X0180995Y0072419D01*
X0181041Y0072450D01*
X0181085Y0072483D01*
X0181126Y0072519D01*
X0181165Y0072558D01*
X0181201Y0072599D01*
X0181234Y0072643D01*
X0181265Y0072689D01*
X0181292Y0072737D01*
X0181315Y0072787D01*
X0181335Y0072838D01*
X0181352Y0072891D01*
X0181365Y0072944D01*
X0181374Y0072998D01*
X0181380Y0073053D01*
X0181382Y0073108D01*
X0181380Y0073163D01*
X0181374Y0073218D01*
X0181365Y0073272D01*
X0181352Y0073325D01*
X0181335Y0073378D01*
X0181315Y0073429D01*
X0181292Y0073479D01*
X0181265Y0073527D01*
X0181234Y0073573D01*
X0181201Y0073617D01*
X0181165Y0073658D01*
X0181126Y0073697D01*
X0181085Y0073733D01*
X0181041Y0073766D01*
X0180995Y0073797D01*
X0180947Y0073824D01*
X0180897Y0073847D01*
X0180846Y0073867D01*
X0180793Y0073884D01*
X0180740Y0073897D01*
X0180686Y0073906D01*
X0180631Y0073912D01*
X0180576Y0073914D01*
X0179771Y0073914D01*
X0179771Y0071014D01*
X0160100Y0063850D02*
X0159294Y0060950D01*
X0157240Y0060950D02*
X0156596Y0062239D01*
X0156435Y0062239D02*
X0155629Y0062239D01*
X0156435Y0062238D02*
X0156490Y0062240D01*
X0156545Y0062246D01*
X0156599Y0062255D01*
X0156652Y0062268D01*
X0156705Y0062285D01*
X0156756Y0062305D01*
X0156806Y0062328D01*
X0156854Y0062355D01*
X0156900Y0062386D01*
X0156944Y0062419D01*
X0156985Y0062455D01*
X0157024Y0062494D01*
X0157060Y0062535D01*
X0157093Y0062579D01*
X0157124Y0062625D01*
X0157151Y0062673D01*
X0157174Y0062723D01*
X0157194Y0062774D01*
X0157211Y0062827D01*
X0157224Y0062880D01*
X0157233Y0062934D01*
X0157239Y0062989D01*
X0157241Y0063044D01*
X0157239Y0063099D01*
X0157233Y0063154D01*
X0157224Y0063208D01*
X0157211Y0063261D01*
X0157194Y0063314D01*
X0157174Y0063365D01*
X0157151Y0063415D01*
X0157124Y0063463D01*
X0157093Y0063509D01*
X0157060Y0063553D01*
X0157024Y0063594D01*
X0156985Y0063633D01*
X0156944Y0063669D01*
X0156900Y0063702D01*
X0156854Y0063733D01*
X0156806Y0063760D01*
X0156756Y0063783D01*
X0156705Y0063803D01*
X0156652Y0063820D01*
X0156599Y0063833D01*
X0156545Y0063842D01*
X0156490Y0063848D01*
X0156435Y0063850D01*
X0155629Y0063850D01*
X0155629Y0060950D01*
X0158489Y0063528D02*
X0158489Y0063850D01*
X0160100Y0063850D01*
X0159294Y0055100D02*
X0159294Y0052200D01*
X0158489Y0052200D02*
X0160100Y0052200D01*
X0157240Y0052200D02*
X0156596Y0053489D01*
X0156435Y0053489D02*
X0155629Y0053489D01*
X0156435Y0053488D02*
X0156490Y0053490D01*
X0156545Y0053496D01*
X0156599Y0053505D01*
X0156652Y0053518D01*
X0156705Y0053535D01*
X0156756Y0053555D01*
X0156806Y0053578D01*
X0156854Y0053605D01*
X0156900Y0053636D01*
X0156944Y0053669D01*
X0156985Y0053705D01*
X0157024Y0053744D01*
X0157060Y0053785D01*
X0157093Y0053829D01*
X0157124Y0053875D01*
X0157151Y0053923D01*
X0157174Y0053973D01*
X0157194Y0054024D01*
X0157211Y0054077D01*
X0157224Y0054130D01*
X0157233Y0054184D01*
X0157239Y0054239D01*
X0157241Y0054294D01*
X0157239Y0054349D01*
X0157233Y0054404D01*
X0157224Y0054458D01*
X0157211Y0054511D01*
X0157194Y0054564D01*
X0157174Y0054615D01*
X0157151Y0054665D01*
X0157124Y0054713D01*
X0157093Y0054759D01*
X0157060Y0054803D01*
X0157024Y0054844D01*
X0156985Y0054883D01*
X0156944Y0054919D01*
X0156900Y0054952D01*
X0156854Y0054983D01*
X0156806Y0055010D01*
X0156756Y0055033D01*
X0156705Y0055053D01*
X0156652Y0055070D01*
X0156599Y0055083D01*
X0156545Y0055092D01*
X0156490Y0055098D01*
X0156435Y0055100D01*
X0155629Y0055100D01*
X0155629Y0052200D01*
X0158489Y0054456D02*
X0159294Y0055100D01*
X0159294Y0046350D02*
X0159294Y0043450D01*
X0158489Y0043450D02*
X0160100Y0043450D01*
X0157369Y0043450D02*
X0156724Y0043450D01*
X0156676Y0043452D01*
X0156628Y0043457D01*
X0156581Y0043466D01*
X0156534Y0043479D01*
X0156489Y0043495D01*
X0156445Y0043514D01*
X0156402Y0043536D01*
X0156361Y0043562D01*
X0156322Y0043591D01*
X0156286Y0043622D01*
X0156252Y0043656D01*
X0156221Y0043692D01*
X0156192Y0043731D01*
X0156166Y0043772D01*
X0156144Y0043815D01*
X0156125Y0043859D01*
X0156109Y0043904D01*
X0156096Y0043951D01*
X0156087Y0043998D01*
X0156082Y0044046D01*
X0156080Y0044094D01*
X0156080Y0045706D01*
X0156082Y0045757D01*
X0156088Y0045807D01*
X0156098Y0045856D01*
X0156112Y0045905D01*
X0156129Y0045952D01*
X0156150Y0045998D01*
X0156175Y0046042D01*
X0156203Y0046085D01*
X0156234Y0046124D01*
X0156269Y0046161D01*
X0156306Y0046196D01*
X0156345Y0046227D01*
X0156388Y0046255D01*
X0156432Y0046280D01*
X0156478Y0046301D01*
X0156525Y0046318D01*
X0156574Y0046332D01*
X0156623Y0046342D01*
X0156673Y0046348D01*
X0156724Y0046350D01*
X0157369Y0046350D01*
X0158489Y0045706D02*
X0159294Y0046350D01*
X0159133Y0037600D02*
X0158489Y0035344D01*
X0160100Y0035344D01*
X0159617Y0035989D02*
X0159617Y0034700D01*
X0157240Y0034700D02*
X0156596Y0035989D01*
X0156435Y0035989D02*
X0155629Y0035989D01*
X0156435Y0035988D02*
X0156490Y0035990D01*
X0156545Y0035996D01*
X0156599Y0036005D01*
X0156652Y0036018D01*
X0156705Y0036035D01*
X0156756Y0036055D01*
X0156806Y0036078D01*
X0156854Y0036105D01*
X0156900Y0036136D01*
X0156944Y0036169D01*
X0156985Y0036205D01*
X0157024Y0036244D01*
X0157060Y0036285D01*
X0157093Y0036329D01*
X0157124Y0036375D01*
X0157151Y0036423D01*
X0157174Y0036473D01*
X0157194Y0036524D01*
X0157211Y0036577D01*
X0157224Y0036630D01*
X0157233Y0036684D01*
X0157239Y0036739D01*
X0157241Y0036794D01*
X0157239Y0036849D01*
X0157233Y0036904D01*
X0157224Y0036958D01*
X0157211Y0037011D01*
X0157194Y0037064D01*
X0157174Y0037115D01*
X0157151Y0037165D01*
X0157124Y0037213D01*
X0157093Y0037259D01*
X0157060Y0037303D01*
X0157024Y0037344D01*
X0156985Y0037383D01*
X0156944Y0037419D01*
X0156900Y0037452D01*
X0156854Y0037483D01*
X0156806Y0037510D01*
X0156756Y0037533D01*
X0156705Y0037553D01*
X0156652Y0037570D01*
X0156599Y0037583D01*
X0156545Y0037592D01*
X0156490Y0037598D01*
X0156435Y0037600D01*
X0155629Y0037600D01*
X0155629Y0034700D01*
X0185400Y0034150D02*
X0185400Y0037050D01*
X0186206Y0037050D01*
X0186261Y0037048D01*
X0186316Y0037042D01*
X0186370Y0037033D01*
X0186423Y0037020D01*
X0186476Y0037003D01*
X0186527Y0036983D01*
X0186577Y0036960D01*
X0186625Y0036933D01*
X0186671Y0036902D01*
X0186715Y0036869D01*
X0186756Y0036833D01*
X0186795Y0036794D01*
X0186831Y0036753D01*
X0186864Y0036709D01*
X0186895Y0036663D01*
X0186922Y0036615D01*
X0186945Y0036565D01*
X0186965Y0036514D01*
X0186982Y0036461D01*
X0186995Y0036408D01*
X0187004Y0036354D01*
X0187010Y0036299D01*
X0187012Y0036244D01*
X0187010Y0036189D01*
X0187004Y0036134D01*
X0186995Y0036080D01*
X0186982Y0036027D01*
X0186965Y0035974D01*
X0186945Y0035923D01*
X0186922Y0035873D01*
X0186895Y0035825D01*
X0186864Y0035779D01*
X0186831Y0035735D01*
X0186795Y0035694D01*
X0186756Y0035655D01*
X0186715Y0035619D01*
X0186671Y0035586D01*
X0186625Y0035555D01*
X0186577Y0035528D01*
X0186527Y0035505D01*
X0186476Y0035485D01*
X0186423Y0035468D01*
X0186370Y0035455D01*
X0186316Y0035446D01*
X0186261Y0035440D01*
X0186206Y0035438D01*
X0186206Y0035439D02*
X0185400Y0035439D01*
X0188038Y0037050D02*
X0188683Y0034150D01*
X0189327Y0036083D01*
X0189972Y0034150D01*
X0190616Y0037050D01*
X0191902Y0037050D02*
X0192707Y0037050D01*
X0191902Y0037050D02*
X0191902Y0034150D01*
X0191902Y0035439D02*
X0192707Y0035439D01*
X0192868Y0035439D02*
X0193513Y0034150D01*
X0192707Y0035438D02*
X0192762Y0035440D01*
X0192817Y0035446D01*
X0192871Y0035455D01*
X0192924Y0035468D01*
X0192977Y0035485D01*
X0193028Y0035505D01*
X0193078Y0035528D01*
X0193126Y0035555D01*
X0193172Y0035586D01*
X0193216Y0035619D01*
X0193257Y0035655D01*
X0193296Y0035694D01*
X0193332Y0035735D01*
X0193365Y0035779D01*
X0193396Y0035825D01*
X0193423Y0035873D01*
X0193446Y0035923D01*
X0193466Y0035974D01*
X0193483Y0036027D01*
X0193496Y0036080D01*
X0193505Y0036134D01*
X0193511Y0036189D01*
X0193513Y0036244D01*
X0193511Y0036299D01*
X0193505Y0036354D01*
X0193496Y0036408D01*
X0193483Y0036461D01*
X0193466Y0036514D01*
X0193446Y0036565D01*
X0193423Y0036615D01*
X0193396Y0036663D01*
X0193365Y0036709D01*
X0193332Y0036753D01*
X0193296Y0036794D01*
X0193257Y0036833D01*
X0193216Y0036869D01*
X0193172Y0036902D01*
X0193126Y0036933D01*
X0193078Y0036960D01*
X0193028Y0036983D01*
X0192977Y0037003D01*
X0192924Y0037020D01*
X0192871Y0037033D01*
X0192817Y0037042D01*
X0192762Y0037048D01*
X0192707Y0037050D01*
X0108044Y0012050D02*
X0107238Y0012050D01*
X0107238Y0009150D01*
X0108044Y0009150D01*
X0108099Y0009152D01*
X0108154Y0009158D01*
X0108208Y0009167D01*
X0108261Y0009180D01*
X0108314Y0009197D01*
X0108365Y0009217D01*
X0108415Y0009240D01*
X0108463Y0009267D01*
X0108509Y0009298D01*
X0108553Y0009331D01*
X0108594Y0009367D01*
X0108633Y0009406D01*
X0108669Y0009447D01*
X0108702Y0009491D01*
X0108733Y0009537D01*
X0108760Y0009585D01*
X0108783Y0009635D01*
X0108803Y0009686D01*
X0108820Y0009739D01*
X0108833Y0009792D01*
X0108842Y0009846D01*
X0108848Y0009901D01*
X0108850Y0009956D01*
X0108848Y0010011D01*
X0108842Y0010066D01*
X0108833Y0010120D01*
X0108820Y0010173D01*
X0108803Y0010226D01*
X0108783Y0010277D01*
X0108760Y0010327D01*
X0108733Y0010375D01*
X0108702Y0010421D01*
X0108669Y0010465D01*
X0108633Y0010506D01*
X0108594Y0010545D01*
X0108553Y0010581D01*
X0108509Y0010614D01*
X0108463Y0010645D01*
X0108415Y0010672D01*
X0108365Y0010695D01*
X0108314Y0010715D01*
X0108261Y0010732D01*
X0108208Y0010745D01*
X0108154Y0010754D01*
X0108099Y0010760D01*
X0108044Y0010762D01*
X0108044Y0010761D02*
X0107238Y0010761D01*
X0108044Y0010762D02*
X0108093Y0010764D01*
X0108142Y0010770D01*
X0108191Y0010779D01*
X0108238Y0010792D01*
X0108285Y0010809D01*
X0108330Y0010829D01*
X0108373Y0010852D01*
X0108415Y0010879D01*
X0108454Y0010909D01*
X0108491Y0010942D01*
X0108525Y0010978D01*
X0108556Y0011016D01*
X0108585Y0011056D01*
X0108610Y0011098D01*
X0108632Y0011143D01*
X0108650Y0011188D01*
X0108665Y0011235D01*
X0108676Y0011283D01*
X0108684Y0011332D01*
X0108688Y0011381D01*
X0108688Y0011431D01*
X0108684Y0011480D01*
X0108676Y0011529D01*
X0108665Y0011577D01*
X0108650Y0011624D01*
X0108632Y0011669D01*
X0108610Y0011714D01*
X0108585Y0011756D01*
X0108556Y0011796D01*
X0108525Y0011834D01*
X0108491Y0011870D01*
X0108454Y0011903D01*
X0108415Y0011933D01*
X0108373Y0011960D01*
X0108330Y0011983D01*
X0108285Y0012003D01*
X0108238Y0012020D01*
X0108191Y0012033D01*
X0108142Y0012042D01*
X0108093Y0012048D01*
X0108044Y0012050D01*
X0104418Y0011083D02*
X0103773Y0009150D01*
X0103129Y0011083D01*
X0102018Y0010439D02*
X0102018Y0010117D01*
X0100729Y0010117D01*
X0100729Y0010439D02*
X0100729Y0009633D01*
X0100731Y0009591D01*
X0100736Y0009549D01*
X0100745Y0009508D01*
X0100758Y0009468D01*
X0100774Y0009429D01*
X0100794Y0009392D01*
X0100816Y0009356D01*
X0100842Y0009323D01*
X0100870Y0009291D01*
X0100902Y0009263D01*
X0100935Y0009237D01*
X0100971Y0009215D01*
X0101008Y0009195D01*
X0101047Y0009179D01*
X0101087Y0009166D01*
X0101128Y0009157D01*
X0101170Y0009152D01*
X0101212Y0009150D01*
X0102018Y0009150D01*
X0102017Y0010439D02*
X0102015Y0010488D01*
X0102009Y0010537D01*
X0102000Y0010586D01*
X0101987Y0010633D01*
X0101970Y0010680D01*
X0101950Y0010725D01*
X0101927Y0010768D01*
X0101900Y0010810D01*
X0101870Y0010849D01*
X0101837Y0010886D01*
X0101801Y0010920D01*
X0101763Y0010951D01*
X0101723Y0010980D01*
X0101681Y0011005D01*
X0101636Y0011027D01*
X0101591Y0011045D01*
X0101544Y0011060D01*
X0101496Y0011071D01*
X0101447Y0011079D01*
X0101398Y0011083D01*
X0101348Y0011083D01*
X0101299Y0011079D01*
X0101250Y0011071D01*
X0101202Y0011060D01*
X0101155Y0011045D01*
X0101110Y0011027D01*
X0101065Y0011005D01*
X0101023Y0010980D01*
X0100983Y0010951D01*
X0100945Y0010920D01*
X0100909Y0010886D01*
X0100876Y0010849D01*
X0100846Y0010810D01*
X0100819Y0010768D01*
X0100796Y0010725D01*
X0100776Y0010680D01*
X0100759Y0010633D01*
X0100746Y0010586D01*
X0100737Y0010537D01*
X0100731Y0010488D01*
X0100729Y0010439D01*
X0099511Y0009150D02*
X0098867Y0010439D01*
X0098706Y0010439D02*
X0097900Y0010439D01*
X0098706Y0010438D02*
X0098761Y0010440D01*
X0098816Y0010446D01*
X0098870Y0010455D01*
X0098923Y0010468D01*
X0098976Y0010485D01*
X0099027Y0010505D01*
X0099077Y0010528D01*
X0099125Y0010555D01*
X0099171Y0010586D01*
X0099215Y0010619D01*
X0099256Y0010655D01*
X0099295Y0010694D01*
X0099331Y0010735D01*
X0099364Y0010779D01*
X0099395Y0010825D01*
X0099422Y0010873D01*
X0099445Y0010923D01*
X0099465Y0010974D01*
X0099482Y0011027D01*
X0099495Y0011080D01*
X0099504Y0011134D01*
X0099510Y0011189D01*
X0099512Y0011244D01*
X0099510Y0011299D01*
X0099504Y0011354D01*
X0099495Y0011408D01*
X0099482Y0011461D01*
X0099465Y0011514D01*
X0099445Y0011565D01*
X0099422Y0011615D01*
X0099395Y0011663D01*
X0099364Y0011709D01*
X0099331Y0011753D01*
X0099295Y0011794D01*
X0099256Y0011833D01*
X0099215Y0011869D01*
X0099171Y0011902D01*
X0099125Y0011933D01*
X0099077Y0011960D01*
X0099027Y0011983D01*
X0098976Y0012003D01*
X0098923Y0012020D01*
X0098870Y0012033D01*
X0098816Y0012042D01*
X0098761Y0012048D01*
X0098706Y0012050D01*
X0097900Y0012050D01*
X0097900Y0009150D01*
X0010222Y0046124D02*
X0007604Y0046124D01*
X0008913Y0046124D02*
X0008913Y0050837D01*
X0007604Y0049789D01*
X0007584Y0062169D02*
X0010205Y0062169D01*
X0007584Y0062169D02*
X0009812Y0064790D01*
X0009026Y0066886D02*
X0008950Y0066884D01*
X0008874Y0066878D01*
X0008798Y0066869D01*
X0008723Y0066855D01*
X0008649Y0066838D01*
X0008576Y0066818D01*
X0008503Y0066793D01*
X0008433Y0066765D01*
X0008363Y0066733D01*
X0008296Y0066698D01*
X0008230Y0066660D01*
X0008166Y0066618D01*
X0008104Y0066573D01*
X0008045Y0066526D01*
X0007988Y0066475D01*
X0007934Y0066421D01*
X0007883Y0066365D01*
X0007834Y0066306D01*
X0007789Y0066245D01*
X0007746Y0066182D01*
X0007707Y0066116D01*
X0007671Y0066049D01*
X0007639Y0065980D01*
X0007610Y0065910D01*
X0007585Y0065838D01*
X0009812Y0064790D02*
X0009860Y0064838D01*
X0009906Y0064889D01*
X0009948Y0064942D01*
X0009988Y0064998D01*
X0010025Y0065056D01*
X0010058Y0065115D01*
X0010089Y0065177D01*
X0010116Y0065240D01*
X0010139Y0065304D01*
X0010159Y0065369D01*
X0010176Y0065436D01*
X0010188Y0065503D01*
X0010198Y0065570D01*
X0010203Y0065639D01*
X0010205Y0065707D01*
X0010203Y0065773D01*
X0010198Y0065839D01*
X0010188Y0065904D01*
X0010175Y0065969D01*
X0010159Y0066033D01*
X0010139Y0066096D01*
X0010115Y0066158D01*
X0010088Y0066219D01*
X0010058Y0066277D01*
X0010024Y0066334D01*
X0009988Y0066389D01*
X0009948Y0066442D01*
X0009905Y0066493D01*
X0009860Y0066541D01*
X0009812Y0066586D01*
X0009761Y0066629D01*
X0009708Y0066669D01*
X0009653Y0066705D01*
X0009596Y0066739D01*
X0009538Y0066769D01*
X0009477Y0066796D01*
X0009415Y0066820D01*
X0009352Y0066840D01*
X0009288Y0066856D01*
X0009223Y0066869D01*
X0009158Y0066879D01*
X0009092Y0066884D01*
X0009026Y0066886D01*
D12*
X0014265Y0072027D02*
X0014265Y0075627D01*
X0015265Y0075627D01*
X0015327Y0075625D01*
X0015388Y0075619D01*
X0015449Y0075610D01*
X0015509Y0075597D01*
X0015568Y0075580D01*
X0015626Y0075559D01*
X0015683Y0075535D01*
X0015738Y0075508D01*
X0015791Y0075477D01*
X0015843Y0075443D01*
X0015892Y0075406D01*
X0015939Y0075366D01*
X0015983Y0075323D01*
X0016024Y0075278D01*
X0016063Y0075230D01*
X0016099Y0075179D01*
X0016131Y0075127D01*
X0016160Y0075073D01*
X0016186Y0075017D01*
X0016208Y0074959D01*
X0016227Y0074901D01*
X0016242Y0074841D01*
X0016253Y0074780D01*
X0016261Y0074719D01*
X0016265Y0074658D01*
X0016265Y0074596D01*
X0016261Y0074535D01*
X0016253Y0074474D01*
X0016242Y0074413D01*
X0016227Y0074353D01*
X0016208Y0074295D01*
X0016186Y0074237D01*
X0016160Y0074181D01*
X0016131Y0074127D01*
X0016099Y0074075D01*
X0016063Y0074024D01*
X0016024Y0073976D01*
X0015983Y0073931D01*
X0015939Y0073888D01*
X0015892Y0073848D01*
X0015843Y0073811D01*
X0015791Y0073777D01*
X0015738Y0073746D01*
X0015683Y0073719D01*
X0015626Y0073695D01*
X0015568Y0073674D01*
X0015509Y0073657D01*
X0015449Y0073644D01*
X0015388Y0073635D01*
X0015327Y0073629D01*
X0015265Y0073627D01*
X0014265Y0073627D01*
X0017831Y0073627D02*
X0018831Y0073627D01*
X0019031Y0073627D02*
X0019831Y0072027D01*
X0021405Y0073027D02*
X0021405Y0074627D01*
X0021407Y0074689D01*
X0021413Y0074750D01*
X0021422Y0074811D01*
X0021435Y0074871D01*
X0021452Y0074930D01*
X0021473Y0074988D01*
X0021497Y0075045D01*
X0021524Y0075100D01*
X0021555Y0075153D01*
X0021589Y0075205D01*
X0021626Y0075254D01*
X0021666Y0075301D01*
X0021709Y0075345D01*
X0021754Y0075386D01*
X0021802Y0075425D01*
X0021853Y0075461D01*
X0021905Y0075493D01*
X0021959Y0075522D01*
X0022015Y0075548D01*
X0022073Y0075570D01*
X0022131Y0075589D01*
X0022191Y0075604D01*
X0022252Y0075615D01*
X0022313Y0075623D01*
X0022374Y0075627D01*
X0022436Y0075627D01*
X0022497Y0075623D01*
X0022558Y0075615D01*
X0022619Y0075604D01*
X0022679Y0075589D01*
X0022737Y0075570D01*
X0022795Y0075548D01*
X0022851Y0075522D01*
X0022905Y0075493D01*
X0022957Y0075461D01*
X0023008Y0075425D01*
X0023056Y0075386D01*
X0023101Y0075345D01*
X0023144Y0075301D01*
X0023184Y0075254D01*
X0023221Y0075205D01*
X0023255Y0075153D01*
X0023286Y0075100D01*
X0023313Y0075045D01*
X0023337Y0074988D01*
X0023358Y0074930D01*
X0023375Y0074871D01*
X0023388Y0074811D01*
X0023397Y0074750D01*
X0023403Y0074689D01*
X0023405Y0074627D01*
X0023405Y0073027D01*
X0023403Y0072965D01*
X0023397Y0072904D01*
X0023388Y0072843D01*
X0023375Y0072783D01*
X0023358Y0072724D01*
X0023337Y0072666D01*
X0023313Y0072609D01*
X0023286Y0072554D01*
X0023255Y0072501D01*
X0023221Y0072449D01*
X0023184Y0072400D01*
X0023144Y0072353D01*
X0023101Y0072309D01*
X0023056Y0072268D01*
X0023008Y0072229D01*
X0022957Y0072193D01*
X0022905Y0072161D01*
X0022851Y0072132D01*
X0022795Y0072106D01*
X0022737Y0072084D01*
X0022679Y0072065D01*
X0022619Y0072050D01*
X0022558Y0072039D01*
X0022497Y0072031D01*
X0022436Y0072027D01*
X0022374Y0072027D01*
X0022313Y0072031D01*
X0022252Y0072039D01*
X0022191Y0072050D01*
X0022131Y0072065D01*
X0022073Y0072084D01*
X0022015Y0072106D01*
X0021959Y0072132D01*
X0021905Y0072161D01*
X0021853Y0072193D01*
X0021802Y0072229D01*
X0021754Y0072268D01*
X0021709Y0072309D01*
X0021666Y0072353D01*
X0021626Y0072400D01*
X0021589Y0072449D01*
X0021555Y0072501D01*
X0021524Y0072554D01*
X0021497Y0072609D01*
X0021473Y0072666D01*
X0021452Y0072724D01*
X0021435Y0072783D01*
X0021422Y0072843D01*
X0021413Y0072904D01*
X0021407Y0072965D01*
X0021405Y0073027D01*
X0025125Y0072827D02*
X0025125Y0074827D01*
X0025127Y0074882D01*
X0025132Y0074936D01*
X0025142Y0074990D01*
X0025155Y0075043D01*
X0025171Y0075095D01*
X0025191Y0075146D01*
X0025215Y0075195D01*
X0025241Y0075243D01*
X0025271Y0075288D01*
X0025304Y0075332D01*
X0025340Y0075373D01*
X0025379Y0075412D01*
X0025420Y0075448D01*
X0025464Y0075481D01*
X0025509Y0075511D01*
X0025557Y0075537D01*
X0025606Y0075561D01*
X0025657Y0075581D01*
X0025709Y0075597D01*
X0025762Y0075610D01*
X0025816Y0075620D01*
X0025870Y0075625D01*
X0025925Y0075627D01*
X0027125Y0075627D01*
X0027125Y0074027D02*
X0027125Y0072027D01*
X0025925Y0072027D01*
X0025870Y0072029D01*
X0025816Y0072034D01*
X0025762Y0072044D01*
X0025709Y0072057D01*
X0025657Y0072073D01*
X0025606Y0072093D01*
X0025557Y0072117D01*
X0025509Y0072143D01*
X0025464Y0072173D01*
X0025420Y0072206D01*
X0025379Y0072242D01*
X0025340Y0072281D01*
X0025304Y0072322D01*
X0025271Y0072366D01*
X0025241Y0072411D01*
X0025215Y0072459D01*
X0025191Y0072508D01*
X0025171Y0072559D01*
X0025155Y0072611D01*
X0025142Y0072664D01*
X0025132Y0072718D01*
X0025127Y0072772D01*
X0025125Y0072827D01*
X0026525Y0074027D02*
X0027125Y0074027D01*
X0018831Y0073627D02*
X0018893Y0073629D01*
X0018954Y0073635D01*
X0019015Y0073644D01*
X0019075Y0073657D01*
X0019134Y0073674D01*
X0019192Y0073695D01*
X0019249Y0073719D01*
X0019304Y0073746D01*
X0019357Y0073777D01*
X0019409Y0073811D01*
X0019458Y0073848D01*
X0019505Y0073888D01*
X0019549Y0073931D01*
X0019590Y0073976D01*
X0019629Y0074024D01*
X0019665Y0074075D01*
X0019697Y0074127D01*
X0019726Y0074181D01*
X0019752Y0074237D01*
X0019774Y0074295D01*
X0019793Y0074353D01*
X0019808Y0074413D01*
X0019819Y0074474D01*
X0019827Y0074535D01*
X0019831Y0074596D01*
X0019831Y0074658D01*
X0019827Y0074719D01*
X0019819Y0074780D01*
X0019808Y0074841D01*
X0019793Y0074901D01*
X0019774Y0074959D01*
X0019752Y0075017D01*
X0019726Y0075073D01*
X0019697Y0075127D01*
X0019665Y0075179D01*
X0019629Y0075230D01*
X0019590Y0075278D01*
X0019549Y0075323D01*
X0019505Y0075366D01*
X0019458Y0075406D01*
X0019409Y0075443D01*
X0019357Y0075477D01*
X0019304Y0075508D01*
X0019249Y0075535D01*
X0019192Y0075559D01*
X0019134Y0075580D01*
X0019075Y0075597D01*
X0019015Y0075610D01*
X0018954Y0075619D01*
X0018893Y0075625D01*
X0018831Y0075627D01*
X0017831Y0075627D01*
X0017831Y0072027D01*
X0094265Y0072027D02*
X0095265Y0072027D01*
X0095325Y0072029D01*
X0095386Y0072034D01*
X0095445Y0072043D01*
X0095504Y0072056D01*
X0095563Y0072072D01*
X0095620Y0072092D01*
X0095675Y0072115D01*
X0095730Y0072142D01*
X0095782Y0072171D01*
X0095833Y0072204D01*
X0095882Y0072240D01*
X0095928Y0072278D01*
X0095972Y0072320D01*
X0096014Y0072364D01*
X0096052Y0072410D01*
X0096088Y0072459D01*
X0096121Y0072510D01*
X0096150Y0072562D01*
X0096177Y0072617D01*
X0096200Y0072672D01*
X0096220Y0072729D01*
X0096236Y0072788D01*
X0096249Y0072847D01*
X0096258Y0072906D01*
X0096263Y0072967D01*
X0096265Y0073027D01*
X0096265Y0074627D01*
X0096263Y0074687D01*
X0096258Y0074748D01*
X0096249Y0074807D01*
X0096236Y0074866D01*
X0096220Y0074925D01*
X0096200Y0074982D01*
X0096177Y0075037D01*
X0096150Y0075092D01*
X0096121Y0075144D01*
X0096088Y0075195D01*
X0096052Y0075244D01*
X0096014Y0075290D01*
X0095972Y0075334D01*
X0095928Y0075376D01*
X0095882Y0075414D01*
X0095833Y0075450D01*
X0095782Y0075483D01*
X0095730Y0075512D01*
X0095675Y0075539D01*
X0095620Y0075562D01*
X0095563Y0075582D01*
X0095504Y0075598D01*
X0095445Y0075611D01*
X0095386Y0075620D01*
X0095325Y0075625D01*
X0095265Y0075627D01*
X0094265Y0075627D01*
X0094265Y0072027D01*
X0098113Y0072027D02*
X0098113Y0075627D01*
X0099713Y0075627D01*
X0100905Y0075627D02*
X0102105Y0072027D01*
X0103305Y0075627D01*
X0104585Y0075627D02*
X0105385Y0075627D01*
X0104985Y0075627D02*
X0104985Y0072027D01*
X0104585Y0072027D02*
X0105385Y0072027D01*
X0106853Y0072827D02*
X0106853Y0074827D01*
X0106855Y0074882D01*
X0106860Y0074936D01*
X0106870Y0074990D01*
X0106883Y0075043D01*
X0106899Y0075095D01*
X0106919Y0075146D01*
X0106943Y0075195D01*
X0106969Y0075243D01*
X0106999Y0075288D01*
X0107032Y0075332D01*
X0107068Y0075373D01*
X0107107Y0075412D01*
X0107148Y0075448D01*
X0107192Y0075481D01*
X0107237Y0075511D01*
X0107285Y0075537D01*
X0107334Y0075561D01*
X0107385Y0075581D01*
X0107437Y0075597D01*
X0107490Y0075610D01*
X0107544Y0075620D01*
X0107598Y0075625D01*
X0107653Y0075627D01*
X0108453Y0075627D01*
X0109993Y0075627D02*
X0111593Y0075627D01*
X0109993Y0075627D02*
X0109993Y0072027D01*
X0111593Y0072027D01*
X0108453Y0072027D02*
X0107653Y0072027D01*
X0107598Y0072029D01*
X0107544Y0072034D01*
X0107490Y0072044D01*
X0107437Y0072057D01*
X0107385Y0072073D01*
X0107334Y0072093D01*
X0107285Y0072117D01*
X0107237Y0072143D01*
X0107192Y0072173D01*
X0107148Y0072206D01*
X0107107Y0072242D01*
X0107068Y0072281D01*
X0107032Y0072322D01*
X0106999Y0072366D01*
X0106969Y0072411D01*
X0106943Y0072459D01*
X0106919Y0072508D01*
X0106899Y0072559D01*
X0106883Y0072611D01*
X0106870Y0072664D01*
X0106860Y0072718D01*
X0106855Y0072772D01*
X0106853Y0072827D01*
X0109993Y0074027D02*
X0111193Y0074027D01*
X0099713Y0072027D02*
X0098113Y0072027D01*
X0098113Y0074027D02*
X0099313Y0074027D01*
X0146631Y0046039D02*
X0146631Y0044590D01*
X0146633Y0044544D01*
X0146639Y0044498D01*
X0146648Y0044453D01*
X0146661Y0044409D01*
X0146678Y0044366D01*
X0146698Y0044325D01*
X0146722Y0044285D01*
X0146748Y0044248D01*
X0146778Y0044213D01*
X0146811Y0044180D01*
X0146846Y0044150D01*
X0146883Y0044124D01*
X0146923Y0044100D01*
X0146964Y0044080D01*
X0147007Y0044063D01*
X0147051Y0044050D01*
X0147096Y0044041D01*
X0147142Y0044035D01*
X0147188Y0044033D01*
X0147234Y0044035D01*
X0147280Y0044041D01*
X0147325Y0044050D01*
X0147369Y0044063D01*
X0147412Y0044080D01*
X0147453Y0044100D01*
X0147493Y0044124D01*
X0147530Y0044150D01*
X0147565Y0044180D01*
X0147598Y0044213D01*
X0147628Y0044248D01*
X0147654Y0044285D01*
X0147678Y0044325D01*
X0147698Y0044366D01*
X0147715Y0044409D01*
X0147728Y0044453D01*
X0147737Y0044498D01*
X0147743Y0044544D01*
X0147745Y0044590D01*
X0147745Y0046039D01*
X0148868Y0045593D02*
X0149425Y0046039D01*
X0149425Y0044033D01*
X0148868Y0044033D02*
X0149983Y0044033D01*
X0112734Y0020050D02*
X0112734Y0015450D01*
X0114012Y0015450D01*
X0114067Y0015452D01*
X0114121Y0015458D01*
X0114175Y0015468D01*
X0114228Y0015481D01*
X0114280Y0015498D01*
X0114331Y0015519D01*
X0114380Y0015544D01*
X0114427Y0015572D01*
X0114472Y0015603D01*
X0114514Y0015637D01*
X0114554Y0015675D01*
X0114592Y0015715D01*
X0114626Y0015757D01*
X0114657Y0015802D01*
X0114685Y0015849D01*
X0114710Y0015898D01*
X0114731Y0015949D01*
X0114748Y0016001D01*
X0114761Y0016054D01*
X0114771Y0016108D01*
X0114777Y0016162D01*
X0114779Y0016217D01*
X0114779Y0017750D01*
X0114777Y0017805D01*
X0114771Y0017859D01*
X0114761Y0017913D01*
X0114748Y0017966D01*
X0114731Y0018018D01*
X0114710Y0018069D01*
X0114685Y0018118D01*
X0114657Y0018165D01*
X0114626Y0018210D01*
X0114592Y0018252D01*
X0114554Y0018292D01*
X0114514Y0018330D01*
X0114472Y0018364D01*
X0114427Y0018395D01*
X0114380Y0018423D01*
X0114331Y0018448D01*
X0114280Y0018469D01*
X0114228Y0018486D01*
X0114175Y0018499D01*
X0114121Y0018509D01*
X0114067Y0018515D01*
X0114012Y0018517D01*
X0112734Y0018517D01*
X0110706Y0017494D02*
X0110706Y0016983D01*
X0108661Y0016983D01*
X0108661Y0017494D02*
X0108661Y0016217D01*
X0108663Y0016162D01*
X0108669Y0016108D01*
X0108679Y0016054D01*
X0108692Y0016001D01*
X0108709Y0015949D01*
X0108730Y0015898D01*
X0108755Y0015849D01*
X0108783Y0015802D01*
X0108814Y0015757D01*
X0108848Y0015715D01*
X0108886Y0015675D01*
X0108926Y0015637D01*
X0108968Y0015603D01*
X0109013Y0015572D01*
X0109060Y0015544D01*
X0109109Y0015519D01*
X0109160Y0015498D01*
X0109212Y0015481D01*
X0109265Y0015468D01*
X0109319Y0015458D01*
X0109373Y0015452D01*
X0109428Y0015450D01*
X0110706Y0015450D01*
X0110705Y0017494D02*
X0110703Y0017557D01*
X0110697Y0017620D01*
X0110688Y0017682D01*
X0110674Y0017743D01*
X0110657Y0017804D01*
X0110636Y0017863D01*
X0110611Y0017921D01*
X0110583Y0017978D01*
X0110552Y0018032D01*
X0110517Y0018084D01*
X0110479Y0018135D01*
X0110438Y0018183D01*
X0110394Y0018228D01*
X0110348Y0018270D01*
X0110299Y0018310D01*
X0110248Y0018346D01*
X0110194Y0018379D01*
X0110139Y0018409D01*
X0110081Y0018435D01*
X0110023Y0018458D01*
X0109963Y0018477D01*
X0109902Y0018492D01*
X0109840Y0018504D01*
X0109777Y0018512D01*
X0109714Y0018516D01*
X0109652Y0018516D01*
X0109589Y0018512D01*
X0109526Y0018504D01*
X0109464Y0018492D01*
X0109403Y0018477D01*
X0109343Y0018458D01*
X0109285Y0018435D01*
X0109227Y0018409D01*
X0109172Y0018379D01*
X0109118Y0018346D01*
X0109067Y0018310D01*
X0109018Y0018270D01*
X0108972Y0018228D01*
X0108928Y0018183D01*
X0108887Y0018135D01*
X0108849Y0018084D01*
X0108814Y0018032D01*
X0108783Y0017978D01*
X0108755Y0017921D01*
X0108730Y0017863D01*
X0108709Y0017804D01*
X0108692Y0017743D01*
X0108678Y0017682D01*
X0108669Y0017620D01*
X0108663Y0017557D01*
X0108661Y0017494D01*
X0106611Y0016728D02*
X0106611Y0018772D01*
X0106609Y0018841D01*
X0106604Y0018910D01*
X0106594Y0018979D01*
X0106581Y0019047D01*
X0106564Y0019114D01*
X0106544Y0019180D01*
X0106520Y0019245D01*
X0106493Y0019309D01*
X0106462Y0019371D01*
X0106428Y0019431D01*
X0106391Y0019489D01*
X0106350Y0019545D01*
X0106307Y0019599D01*
X0106261Y0019651D01*
X0106212Y0019700D01*
X0106160Y0019746D01*
X0106106Y0019789D01*
X0106050Y0019830D01*
X0105992Y0019867D01*
X0105932Y0019901D01*
X0105870Y0019932D01*
X0105806Y0019959D01*
X0105741Y0019983D01*
X0105675Y0020003D01*
X0105608Y0020020D01*
X0105540Y0020033D01*
X0105471Y0020043D01*
X0105402Y0020048D01*
X0105333Y0020050D01*
X0104056Y0020050D01*
X0104056Y0015450D01*
X0105333Y0015450D01*
X0105402Y0015452D01*
X0105471Y0015457D01*
X0105540Y0015467D01*
X0105608Y0015480D01*
X0105675Y0015497D01*
X0105741Y0015517D01*
X0105806Y0015541D01*
X0105870Y0015568D01*
X0105932Y0015599D01*
X0105992Y0015633D01*
X0106050Y0015670D01*
X0106106Y0015711D01*
X0106160Y0015754D01*
X0106212Y0015800D01*
X0106261Y0015849D01*
X0106307Y0015901D01*
X0106350Y0015955D01*
X0106391Y0016011D01*
X0106428Y0016069D01*
X0106462Y0016129D01*
X0106493Y0016191D01*
X0106520Y0016255D01*
X0106544Y0016320D01*
X0106564Y0016386D01*
X0106581Y0016453D01*
X0106594Y0016521D01*
X0106604Y0016590D01*
X0106609Y0016659D01*
X0106611Y0016728D01*
X0099367Y0015450D02*
X0099367Y0020050D01*
X0097833Y0017494D01*
X0096300Y0020050D01*
X0096300Y0015450D01*
X0094190Y0015450D02*
X0093168Y0017494D01*
X0092912Y0017494D02*
X0091635Y0017494D01*
X0092912Y0017494D02*
X0092982Y0017496D01*
X0093053Y0017502D01*
X0093122Y0017511D01*
X0093191Y0017525D01*
X0093260Y0017542D01*
X0093327Y0017563D01*
X0093393Y0017588D01*
X0093457Y0017616D01*
X0093520Y0017648D01*
X0093581Y0017683D01*
X0093640Y0017722D01*
X0093697Y0017763D01*
X0093751Y0017808D01*
X0093803Y0017856D01*
X0093852Y0017906D01*
X0093899Y0017960D01*
X0093942Y0018015D01*
X0093982Y0018073D01*
X0094019Y0018133D01*
X0094052Y0018195D01*
X0094082Y0018259D01*
X0094109Y0018324D01*
X0094132Y0018390D01*
X0094151Y0018458D01*
X0094166Y0018527D01*
X0094178Y0018596D01*
X0094186Y0018666D01*
X0094190Y0018737D01*
X0094190Y0018807D01*
X0094186Y0018878D01*
X0094178Y0018948D01*
X0094166Y0019017D01*
X0094151Y0019086D01*
X0094132Y0019154D01*
X0094109Y0019220D01*
X0094082Y0019285D01*
X0094052Y0019349D01*
X0094019Y0019411D01*
X0093982Y0019471D01*
X0093942Y0019529D01*
X0093899Y0019584D01*
X0093852Y0019638D01*
X0093803Y0019688D01*
X0093751Y0019736D01*
X0093697Y0019781D01*
X0093640Y0019822D01*
X0093581Y0019861D01*
X0093520Y0019896D01*
X0093457Y0019928D01*
X0093393Y0019956D01*
X0093327Y0019981D01*
X0093260Y0020002D01*
X0093191Y0020019D01*
X0093122Y0020033D01*
X0093053Y0020042D01*
X0092982Y0020048D01*
X0092912Y0020050D01*
X0091635Y0020050D01*
X0091635Y0015450D01*
X0089767Y0015450D02*
X0088233Y0020050D01*
X0086700Y0015450D01*
X0087083Y0016600D02*
X0089383Y0016600D01*
X0116761Y0016217D02*
X0116761Y0018517D01*
X0118806Y0018517D02*
X0118806Y0015450D01*
X0117528Y0015450D01*
X0117473Y0015452D01*
X0117419Y0015458D01*
X0117365Y0015468D01*
X0117312Y0015481D01*
X0117260Y0015498D01*
X0117209Y0015519D01*
X0117160Y0015544D01*
X0117113Y0015572D01*
X0117068Y0015603D01*
X0117026Y0015637D01*
X0116986Y0015675D01*
X0116948Y0015715D01*
X0116914Y0015757D01*
X0116883Y0015802D01*
X0116855Y0015849D01*
X0116830Y0015898D01*
X0116809Y0015949D01*
X0116792Y0016001D01*
X0116779Y0016054D01*
X0116769Y0016108D01*
X0116763Y0016162D01*
X0116761Y0016217D01*
X0120788Y0016217D02*
X0120788Y0017750D01*
X0120790Y0017805D01*
X0120796Y0017859D01*
X0120806Y0017913D01*
X0120819Y0017966D01*
X0120836Y0018018D01*
X0120857Y0018069D01*
X0120882Y0018118D01*
X0120910Y0018165D01*
X0120941Y0018210D01*
X0120975Y0018252D01*
X0121013Y0018292D01*
X0121053Y0018330D01*
X0121095Y0018364D01*
X0121140Y0018395D01*
X0121187Y0018423D01*
X0121236Y0018448D01*
X0121287Y0018469D01*
X0121339Y0018486D01*
X0121392Y0018499D01*
X0121446Y0018509D01*
X0121500Y0018515D01*
X0121555Y0018517D01*
X0122832Y0018517D01*
X0122832Y0014683D01*
X0122833Y0014683D02*
X0122831Y0014628D01*
X0122825Y0014574D01*
X0122815Y0014520D01*
X0122802Y0014467D01*
X0122785Y0014415D01*
X0122764Y0014364D01*
X0122739Y0014315D01*
X0122711Y0014268D01*
X0122680Y0014223D01*
X0122646Y0014181D01*
X0122608Y0014141D01*
X0122568Y0014103D01*
X0122526Y0014069D01*
X0122481Y0014038D01*
X0122434Y0014010D01*
X0122385Y0013985D01*
X0122334Y0013964D01*
X0122282Y0013947D01*
X0122229Y0013934D01*
X0122175Y0013924D01*
X0122121Y0013918D01*
X0122066Y0013916D01*
X0122066Y0013917D02*
X0121043Y0013917D01*
X0121555Y0015450D02*
X0122832Y0015450D01*
X0121555Y0015450D02*
X0121500Y0015452D01*
X0121446Y0015458D01*
X0121392Y0015468D01*
X0121339Y0015481D01*
X0121287Y0015498D01*
X0121236Y0015519D01*
X0121187Y0015544D01*
X0121140Y0015572D01*
X0121095Y0015603D01*
X0121053Y0015637D01*
X0121013Y0015675D01*
X0120975Y0015715D01*
X0120941Y0015757D01*
X0120910Y0015802D01*
X0120882Y0015849D01*
X0120857Y0015898D01*
X0120836Y0015949D01*
X0120819Y0016001D01*
X0120806Y0016054D01*
X0120796Y0016108D01*
X0120790Y0016162D01*
X0120788Y0016217D01*
D13*
X0099000Y0036200D02*
X0094000Y0036200D01*
X0096500Y0041200D01*
X0099000Y0036200D01*
X0133035Y0048035D02*
X0133035Y0050988D01*
X0133035Y0048035D02*
X0135988Y0048035D01*
X0147012Y0048035D02*
X0149965Y0048035D01*
X0149965Y0050988D01*
X0149965Y0062012D02*
X0149965Y0064965D01*
X0147012Y0064965D01*
X0135988Y0064965D02*
X0133035Y0064965D01*
X0133035Y0062012D01*
X0019000Y0036200D02*
X0014000Y0036200D01*
X0016500Y0041200D01*
X0019000Y0036200D01*
D14*
X0057907Y0052051D02*
X0057907Y0060594D01*
X0059089Y0066343D02*
X0064797Y0066343D01*
X0070821Y0066343D02*
X0076411Y0066343D01*
X0077593Y0060476D02*
X0077593Y0052720D01*
X0076411Y0046657D02*
X0070506Y0046657D01*
X0065033Y0046657D02*
X0059089Y0046657D01*
X0197730Y0039965D02*
X0197730Y0073035D01*
X0200486Y0071854D02*
X0200486Y0041146D01*
D15*
X0178281Y0040752D03*
D16*
X0148604Y0049402D03*
D17*
X0179492Y0035250D03*
X0179492Y0079000D03*
X0179492Y0087750D03*
D18*
X0056923Y0045476D02*
X0056925Y0045503D01*
X0056931Y0045530D01*
X0056940Y0045556D01*
X0056953Y0045580D01*
X0056969Y0045603D01*
X0056988Y0045622D01*
X0057010Y0045639D01*
X0057034Y0045653D01*
X0057059Y0045663D01*
X0057086Y0045670D01*
X0057113Y0045673D01*
X0057141Y0045672D01*
X0057168Y0045667D01*
X0057194Y0045659D01*
X0057218Y0045647D01*
X0057241Y0045631D01*
X0057262Y0045613D01*
X0057279Y0045592D01*
X0057294Y0045568D01*
X0057305Y0045543D01*
X0057313Y0045517D01*
X0057317Y0045490D01*
X0057317Y0045462D01*
X0057313Y0045435D01*
X0057305Y0045409D01*
X0057294Y0045384D01*
X0057279Y0045360D01*
X0057262Y0045339D01*
X0057241Y0045321D01*
X0057219Y0045305D01*
X0057194Y0045293D01*
X0057168Y0045285D01*
X0057141Y0045280D01*
X0057113Y0045279D01*
X0057086Y0045282D01*
X0057059Y0045289D01*
X0057034Y0045299D01*
X0057010Y0045313D01*
X0056988Y0045330D01*
X0056969Y0045349D01*
X0056953Y0045372D01*
X0056940Y0045396D01*
X0056931Y0045422D01*
X0056925Y0045449D01*
X0056923Y0045476D01*
M02*
